<svg xmlns="http://www.w3.org/2000/svg" xmlns:xlink="http://www.w3.org/1999/xlink" version="1.1" x="0px" y="0px" width="52px" height="52px" viewBox="0 0 52 52" enable-background="new 0 0 52 52" xml:space="preserve">
    <path fill="#FF6866" d="M20.5,21.1c-0.3-0.3-0.9-0.3-1.2,0l-8.7,8.7c-0.3,0.3-0.3,0.9,0,1.2    c0.2,0.2,0.4,0.3,0.6,0.3s0.4-0.1,0.6-0.3l8.1-8.1l6.3,6.3c0.3,0.3,0.9,0.3,1.2,0l12.4-12.4v3.1c0,0.5,0.3,0.9,0.9,0.9    c0.5,0,0.9-0.3,0.9-0.9v-5.2c0-0.1,0-0.3-0.1-0.3c-0.1-0.2-0.3-0.3-0.4-0.4c-0.1-0.1-0.3-0.1-0.3-0.1h-5.2c-0.5,0-0.9,0.3-0.9,0.9    c0,0.5,0.3,0.9,0.9,0.9h3.1L26.9,27.4L20.5,21.1z M29.2,47.1c-0.3-0.3-0.9-0.3-1.2,0c-0.3,0.3-0.3,0.9,0,1.2l3.5,3.5    c0.2,0.2,0.4,0.3,0.6,0.3c0.2,0,0.4-0.1,0.6-0.3c0.3-0.3,0.3-0.9,0-1.2L29.2,47.1z M26,41.6c-0.5,0-0.9,0.3-0.9,0.9v2.3l-5.8,5.8    c-0.3,0.3-0.3,0.9,0,1.2c0.2,0.2,0.4,0.3,0.6,0.3c0.2,0,0.4-0.1,0.6-0.3l6.1-6.1c0.2-0.2,0.3-0.3,0.3-0.6v-2.6    C26.9,41.9,26.5,41.6,26,41.6L26,41.6z M52,2.6v3.5c0,0.5-0.3,0.9-0.9,0.9h-0.9v28.6c0,2.4-1.9,4.3-4.3,4.3H6.1    c-2.4,0-4.3-1.9-4.3-4.3v-26c0-0.5,0.3-0.9,0.9-0.9S3.5,9,3.5,9.5v26c0,1.5,1.1,2.6,2.6,2.6h39.9c1.5,0,2.6-1.1,2.6-2.6V6.1    c0-0.5,0.3-0.9,0.9-0.9h0.9V3.5H1.7v1.7h44.2c0.5,0,0.9,0.3,0.9,0.9s-0.3,0.9-0.9,0.9H0.9C0.3,6.9,0,6.6,0,6.1V2.6    c0-0.5,0.3-0.9,0.9-0.9h24.3V0.9C25.1,0.3,25.5,0,26,0s0.9,0.3,0.9,0.9v0.9h24.3C51.7,1.7,52,2.1,52,2.6L52,2.6z"/>
</svg>