<svg id="Layer_1" data-name="Layer 1" xmlns="http://www.w3.org/2000/svg" viewBox="0 0 44 27.3"><defs><style>.cls-1{fill:#f4981b}.cls-2{fill:#020203}</style></defs><path class="cls-1" d="M38.71 14.34H5.32L5.91.88l32.31.1.49 13.36z"/><path class="cls-2" d="M10.13 6.09a.76.76 0 0 0 .79-.69.68.68 0 0 0-.69-.69.68.68 0 0 0-.69.69.59.59 0 0 0 .59.69zM10.13 10.8a.75.75 0 0 0 .79-.68.67.67 0 0 0-.69-.69.67.67 0 0 0-.69.69.55.55 0 0 0 .59.68zM14.85 8.45a.76.76 0 0 0 .78-.69.67.67 0 0 0-.63-.69.67.67 0 0 0-.69.69.55.55 0 0 0 .54.69zM19.66 6.09a.77.77 0 0 0 .79-.69.68.68 0 0 0-.69-.69.68.68 0 0 0-.69.69c-.2.3.2.69.59.69zM19.66 10.8a.76.76 0 0 0 .79-.68.67.67 0 0 0-.69-.69.67.67 0 0 0-.69.69c-.2.39.2.68.59.68zM24.37 8.45a.69.69 0 0 0 0-1.38.69.69 0 0 0 0 1.38zM29.19 6.09a.69.69 0 0 0 0-1.38.67.67 0 0 0-.69.69c-.1.3.29.69.69.69zM29.19 10.8a.69.69 0 0 0 0-1.37.67.67 0 0 0-.69.69c-.1.39.29.68.69.68zM33.9 8.45a.69.69 0 1 0 0-1.38.69.69 0 1 0 0 1.38zM33.9 3.73a.69.69 0 1 0 0-1.37.69.69 0 1 0 0 1.37zM24.37 3.73a.67.67 0 0 0 .69-.73.66.66 0 0 0-.69-.68.66.66 0 0 0-.68.68.66.66 0 0 0 .68.73zM14.85 3.73a.75.75 0 0 0 .78-.73.66.66 0 0 0-.63-.64.66.66 0 0 0-.69.68c-.05.4.14.69.54.69z"/><path class="cls-1" d="M.7 17.09h42.63v7.27H.7zM2.77 14.73h38.11v2.26H2.77z"/><path class="cls-2" d="M43.33 16.5h-1.67v-1.67a.67.67 0 0 0-.69-.69H39.3V3a3 3 0 0 0-3-3H7.78a3 3 0 0 0-3 3v11.1H3.06a.68.68 0 0 0-.69.69v1.71H.7a.66.66 0 0 0-.68.69v7.07A.67.67 0 0 0 .7 25h4v1H3.06a.69.69 0 1 0 0 1.37h4.72a.69.69 0 0 0 0-1.37H6.11v-1h31.72v1h-1.67a.69.69 0 1 0 0 1.37h4.71a.69.69 0 1 0 0-1.37H39.2v-1h4.13a.68.68 0 0 0 .69-.69v-7.12a.67.67 0 0 0-.69-.69zM6.11 3a1.65 1.65 0 0 1 1.67-1.72h28.48A1.65 1.65 0 0 1 37.93 3v11h-3.44a3 3 0 0 0-3-2.35h-4.76a3.15 3.15 0 0 0-3 2.35h-3.48a3 3 0 0 0-3.05-2.35h-4.71a3.15 3.15 0 0 0-3 2.35H6l.11-11zm19.15 11.14a1.59 1.59 0 0 1 1.47-1h4.72a1.52 1.52 0 0 1 1.47 1h-7.66zm-14.26 0a1.59 1.59 0 0 1 1.47-1h4.73a1.52 1.52 0 0 1 1.48 1H11zm-7.25 1.38h36.34v1H3.75zm38.89 8.05H1.39v-5.69h41.25z"/></svg>