<svg id="Layer_1" data-name="Layer 1" xmlns="http://www.w3.org/2000/svg" viewBox="0 0 44 27.35"><defs><style>.cls-1{fill:#020203}</style></defs><path class="cls-1" d="M10.13 6.1a.76.76 0 0 0 .79-.69.67.67 0 0 0-.69-.69.68.68 0 0 0-.69.69.59.59 0 0 0 .59.69zM10.13 10.82a.76.76 0 0 0 .79-.69.66.66 0 0 0-.69-.68.67.67 0 0 0-.69.68.56.56 0 0 0 .59.69zM15 8.46a.75.75 0 0 0 .78-.69.67.67 0 0 0-.69-.69.67.67 0 0 0-.68.69c-.24.4.15.69.59.69zM19.68 6.1a.76.76 0 0 0 .79-.69.68.68 0 0 0-.69-.69.67.67 0 0 0-.69.69.58.58 0 0 0 .59.69zM19.68 10.82a.76.76 0 0 0 .79-.69.67.67 0 0 0-.69-.68.66.66 0 0 0-.69.68.55.55 0 0 0 .59.69zM24.5 8.46a.69.69 0 0 0 0-1.38.68.68 0 0 0-.69.69c-.1.4.3.69.69.69zM29.22 6.1a.69.69 0 1 0 0-1.38.68.68 0 0 0-.69.69c-.09.3.3.69.69.69zM29.22 10.82a.69.69 0 1 0 0-1.37.67.67 0 0 0-.69.68c-.09.4.3.69.69.69zM34 8.46a.69.69 0 0 0 0-1.38.69.69 0 1 0 0 1.38zM34 3.74a.67.67 0 0 0 .68-.69.67.67 0 0 0-.68-.69.67.67 0 0 0-.69.69.67.67 0 0 0 .69.69zM24.5 3.74a.68.68 0 0 0 .69-.69.77.77 0 0 0-.69-.79.68.68 0 0 0-.69.69.76.76 0 0 0 .69.79zM15 3.74a.76.76 0 0 0 .78-.69.67.67 0 0 0-.69-.69.67.67 0 0 0-.68.69c-.04.39.15.69.59.69z"/><path fill="#f4981b" d="M.69 17.12h42.7v7.28H.69z"/><path class="cls-1" d="M43.39 16.53h-1.67v-1.67a.67.67 0 0 0-.69-.69h-1.67V3.05a3 3 0 0 0-3-3H7.77a3 3 0 0 0-3 3.05v11.07H3.05a.67.67 0 0 0-.69.69v1.67H.69a.67.67 0 0 0-.69.69v7.08a.67.67 0 0 0 .69.7h4v1H3.05a.69.69 0 1 0 0 1.37h4.72a.69.69 0 1 0 0-1.37H6.1v-1h31.78v1h-1.67a.69.69 0 1 0 0 1.37h4.72a.69.69 0 1 0 0-1.37h-1.67v-1h4a.67.67 0 0 0 .74-.7v-7.08a.55.55 0 0 0-.61-.69zM6.1 3a1.66 1.66 0 0 1 1.67-1.72h28.54A1.66 1.66 0 0 1 38 3v11.07h-3.46a3 3 0 0 0-3.05-2.36h-4.73a3.17 3.17 0 0 0-3.05 2.36h-3.44a3 3 0 0 0-3.05-2.36H12.5a3.15 3.15 0 0 0-3.05 2.36H6.1zm19.19 11.17a1.6 1.6 0 0 1 1.47-1h4.73a1.52 1.52 0 0 1 1.47 1h-7.67zm-14.29 0a1.63 1.63 0 0 1 1.48-1h4.72a1.5 1.5 0 0 1 1.47 1H11zm-7.26 1.38h36.6v1H3.74zm39 8.06H1.38v-5.7H42.7z"/></svg>