<svg xmlns="http://www.w3.org/2000/svg" xmlns:xlink="http://www.w3.org/1999/xlink" version="1.1" x="0px" y="0px" width="52px" height="52px" viewBox="0 0 52 52" enable-background="new 0 0 52 52" xml:space="preserve">
    <path fill="#FF6866" d="M15.3,37.5c-0.3-0.3-0.9-0.3-1.2,0L13,38.7l-1.1-1.1c-0.3-0.3-0.9-0.3-1.2,0    c-0.3,0.3-0.3,0.9,0,1.2l1.1,1.1L10.7,41c-0.3,0.3-0.3,0.9,0,1.2c0.2,0.2,0.4,0.3,0.6,0.3s0.4-0.1,0.6-0.3l1.1-1.1l1.1,1.1    c0.2,0.2,0.4,0.3,0.6,0.3s0.4-0.1,0.6-0.3c0.3-0.3,0.3-0.9,0-1.2l-1.1-1.1l1.1-1.1C15.7,38.4,15.7,37.9,15.3,37.5L15.3,37.5z     M24,37.5c-0.3-0.3-0.9-0.3-1.2,0l-1.1,1.1l-1.1-1.1c-0.3-0.3-0.9-0.3-1.2,0c-0.3,0.3-0.3,0.9,0,1.2l1.1,1.1L19.3,41    c-0.3,0.3-0.3,0.9,0,1.2c0.2,0.2,0.4,0.3,0.6,0.3s0.4-0.1,0.6-0.3l1.1-1.1l1.1,1.1c0.2,0.2,0.4,0.3,0.6,0.3s0.4-0.1,0.6-0.3    c0.3-0.3,0.3-0.9,0-1.2l-1.1-1.1l1.1-1.1C24.4,38.4,24.4,37.9,24,37.5L24,37.5z M41.3,28.9c-0.3-0.3-0.9-0.3-1.2,0L39,30l-1.1-1.1    c-0.3-0.3-0.9-0.3-1.2,0s-0.3,0.9,0,1.2l1.1,1.1l-1.1,1.1c-0.3,0.3-0.3,0.9,0,1.2c0.2,0.2,0.4,0.3,0.6,0.3c0.2,0,0.4-0.1,0.6-0.3    l1.1-1.1l1.1,1.1c0.2,0.2,0.4,0.3,0.6,0.3c0.2,0,0.4-0.1,0.6-0.3c0.3-0.3,0.3-0.9,0-1.2l-1.1-1.1l1.1-1.1    C41.7,29.7,41.7,29.2,41.3,28.9L41.3,28.9z M32.7,20.2c-0.3-0.3-0.9-0.3-1.2,0l-1.1,1.1l-1.1-1.1c-0.3-0.3-0.9-0.3-1.2,0    c-0.3,0.3-0.3,0.9,0,1.2l1.1,1.1L28,23.7c-0.3,0.3-0.3,0.9,0,1.2c0.2,0.2,0.4,0.3,0.6,0.3s0.4-0.1,0.6-0.3l1.1-1.1l1.1,1.1    c0.2,0.2,0.4,0.3,0.6,0.3c0.2,0,0.4-0.1,0.6-0.3c0.3-0.3,0.3-0.9,0-1.2l-1.1-1.1l1.1-1.1C33,21.1,33,20.5,32.7,20.2L32.7,20.2z     M38.1,23.4h1.7v-1.7h-1.7V23.4z M41.6,24.3c0,0.5-0.3,0.9-0.9,0.9h-3.5c-0.5,0-0.9-0.3-0.9-0.9v-3.5c0-0.5,0.3-0.9,0.9-0.9h3.5    c0.5,0,0.9,0.3,0.9,0.9V24.3z M29.5,40.7h1.7V39h-1.7V40.7z M32.9,38.1v3.5c0,0.5-0.3,0.9-0.9,0.9h-3.5c-0.5,0-0.9-0.3-0.9-0.9    v-3.5c0-0.5,0.3-0.9,0.9-0.9h3.5C32.6,37.3,32.9,37.6,32.9,38.1L32.9,38.1z M29.5,32.1h1.7v-1.7h-1.7V32.1z M32.9,32.9    c0,0.5-0.3,0.9-0.9,0.9h-3.5c-0.5,0-0.9-0.3-0.9-0.9v-3.5c0-0.5,0.3-0.9,0.9-0.9h3.5c0.5,0,0.9,0.3,0.9,0.9V32.9z M20.8,32.1h1.7    v-1.7h-1.7V32.1z M24.3,32.9c0,0.5-0.3,0.9-0.9,0.9h-3.5c-0.5,0-0.9-0.3-0.9-0.9v-3.5c0-0.5,0.3-0.9,0.9-0.9h3.5    c0.5,0,0.9,0.3,0.9,0.9V32.9z M20.8,23.4h1.7v-1.7h-1.7V23.4z M24.3,24.3c0,0.5-0.3,0.9-0.9,0.9h-3.5c-0.5,0-0.9-0.3-0.9-0.9v-3.5    c0-0.5,0.3-0.9,0.9-0.9h3.5c0.5,0,0.9,0.3,0.9,0.9V24.3z M12.1,32.1h1.7v-1.7h-1.7V32.1z M15.6,32.9c0,0.5-0.3,0.9-0.9,0.9h-3.5    c-0.5,0-0.9-0.3-0.9-0.9v-3.5c0-0.5,0.3-0.9,0.9-0.9h3.5c0.5,0,0.9,0.3,0.9,0.9V32.9z M12.1,23.4h1.7v-1.7h-1.7V23.4z M15.6,24.3    c0,0.5-0.3,0.9-0.9,0.9h-3.5c-0.5,0-0.9-0.3-0.9-0.9v-3.5c0-0.5,0.3-0.9,0.9-0.9h3.5c0.5,0,0.9,0.3,0.9,0.9V24.3z M38.1,6.1    c0,0.5,0.3,0.9,0.9,0.9s0.9-0.3,0.9-0.9V2.6c0-0.5-0.3-0.9-0.9-0.9s-0.9,0.3-0.9,0.9V6.1z M36.4,6.1V2.6C36.4,1.1,37.5,0,39,0    s2.6,1.1,2.6,2.6v3.5c0,1.5-1.1,2.6-2.6,2.6S36.4,7.5,36.4,6.1L36.4,6.1z M29.5,6.1c0,0.5,0.3,0.9,0.9,0.9s0.9-0.3,0.9-0.9V2.6    c0-0.5-0.3-0.9-0.9-0.9s-0.9,0.3-0.9,0.9V6.1z M27.7,6.1V2.6c0-1.5,1.1-2.6,2.6-2.6c1.5,0,2.6,1.1,2.6,2.6v3.5    c0,1.5-1.1,2.6-2.6,2.6C28.9,8.7,27.7,7.5,27.7,6.1L27.7,6.1z M20.8,6.1c0,0.5,0.3,0.9,0.9,0.9s0.9-0.3,0.9-0.9V2.6    c0-0.5-0.3-0.9-0.9-0.9s-0.9,0.3-0.9,0.9V6.1z M19.1,6.1V2.6c0-1.5,1.1-2.6,2.6-2.6c1.5,0,2.6,1.1,2.6,2.6v3.5    c0,1.5-1.1,2.6-2.6,2.6C20.2,8.7,19.1,7.5,19.1,6.1L19.1,6.1z M12.1,6.1c0,0.5,0.3,0.9,0.9,0.9s0.9-0.3,0.9-0.9V2.6    c0-0.5-0.3-0.9-0.9-0.9s-0.9,0.3-0.9,0.9V6.1z M10.4,6.1V2.6C10.4,1.1,11.5,0,13,0s2.6,1.1,2.6,2.6v3.5c0,1.5-1.1,2.6-2.6,2.6    S10.4,7.5,10.4,6.1L10.4,6.1z M41.9,47.1c-0.3,0.3-0.3,0.9,0,1.2c0.2,0.2,0.4,0.3,0.6,0.3c0.2,0,0.4-0.1,0.6-0.3l5.2-5.2    c0.2-0.2,0.3-0.3,0.3-0.6V14.7c0-0.5-0.3-0.9-0.9-0.9H4.3c-0.5,0-0.9,0.3-0.9,0.9v30.3c0,1.9,1.6,3.5,3.5,3.5H39    c0.5,0,0.9-0.3,0.9-0.9v-5.2c0-0.4,0.3-0.9,0.9-0.9h3.5c0.5,0,0.9-0.3,0.9-0.9c0-0.5-0.3-0.9-0.9-0.9h-3.5c-1.4,0-2.6,1.2-2.6,2.6    v4.3H6.9c-1,0-1.7-0.8-1.7-1.7V15.6h41.6v26.5L41.9,47.1z M47.7,1.7h-3.5c-0.5,0-0.9,0.3-0.9,0.9s0.3,0.9,0.9,0.9h3.5    c1.3,0,2.6,1.3,2.6,2.6v41.6c0,1.3-1.3,2.6-2.6,2.6H4.3c-1.3,0-2.6-1.3-2.6-2.6V12.1h45.9c0.5,0,0.9-0.3,0.9-0.9s-0.3-0.9-0.9-0.9    H0.9c-0.5,0-0.9,0.3-0.9,0.9v36.4C0,49.9,2.1,52,4.3,52h43.3c2.3,0,4.3-2.1,4.3-4.3V6.1C52,3.8,49.9,1.7,47.7,1.7L47.7,1.7z     M0,7.8V6.1c0-2.3,2.1-4.3,4.3-4.3h3.5c0.5,0,0.9,0.3,0.9,0.9S8.3,3.5,7.8,3.5H4.3C3,3.5,1.7,4.8,1.7,6.1v1.7    c0,0.5-0.3,0.9-0.9,0.9S0,8.3,0,7.8L0,7.8z"/>
</svg>