<svg xmlns="http://www.w3.org/2000/svg" xmlns:xlink="http://www.w3.org/1999/xlink" version="1.1" x="0px" y="0px" width="52px" height="52px" viewBox="0 0 52 52" enable-background="new 0 0 52 52" xml:space="preserve">
<title>Contact Card</title>
<path fill="none" stroke="#FF6866" stroke-width="2" stroke-miterlimit="10" d="M1.4,35.4V10c0-1.3,1-2.4,2.4-2.4H48   c1.3,0,2.4,1,2.4,2.4v31.6c0,1.3-1,2.4-2.4,2.4H4.6c-1.7,0-3.2-1.4-3.2-3.2v-3.3c15.1,0,30.2,0,45.4,0"/>
    <circle fill="none" stroke="#FF6866" stroke-width="2" stroke-miterlimit="10" cx="17.5" cy="20.6" r="4.5"/>
    <path fill="none" stroke="#FF6866" stroke-width="2" stroke-miterlimit="10" d="M11.9,29.1c0-2.8,2.2-4.4,3.8-4.4"/>
    <path fill="none" stroke="#FF6866" stroke-width="2" stroke-miterlimit="10" d="M23.1,29.1c0-2.8-2.2-4.4-3.8-4.4"/>
    <line fill="none" stroke="#FF6866" stroke-width="2" stroke-miterlimit="10" x1="29.1" y1="18" x2="40" y2="18"/>
    <line fill="none" stroke="#FF6866" stroke-width="2" stroke-miterlimit="10" x1="29.1" y1="22.5" x2="37.7" y2="22.5"/>
    <line fill="none" stroke="#FF6866" stroke-width="2" stroke-miterlimit="10" x1="29.1" y1="26.9" x2="33.4" y2="26.9"/>
</svg>