<svg data-name="Layer 1" xmlns="http://www.w3.org/2000/svg" viewBox="0 0 25 26"><path d="M.24 8.13l2.07 8.49a2.29 2.29 0 0 0 2.22 1.78h12.38a1 1 0 0 1 .93 1 1 1 0 0 1-1 .92H6.51a2.71 2.71 0 1 0 .15 5.42A2.72 2.72 0 0 0 9 22.13h3.11a2.64 2.64 0 0 0-.15.89 2.65 2.65 0 0 0 5.29.22 2.79 2.79 0 0 0-.14-1.12 2.79 2.79 0 0 0 .48-5.46l2.07-7.52 1.48-5.44h2.95a.79.79 0 0 0 .78-.8v-.09a.79.79 0 0 0-.78-.8h-3.43a1 1 0 0 0-1 .77l-.78 2.78a2.19 2.19 0 0 0-1.2-.35H2.5a2.3 2.3 0 0 0-1.81.86 2.37 2.37 0 0 0-.45 2.06zM7.34 23a.88.88 0 1 1-.88-.9.89.89 0 0 1 .88.9zm8.11 0a.88.88 0 1 1-1.75 0 .88.88 0 1 1 1.75 0zm2.33-13.87h-2.21L16 7h1.67a.5.5 0 0 1 .41.21.52.52 0 0 1 .08.46l-.4 1.43zm-1 3.78h-2l.42-2h2.1zm-1.4 3.67H14l.4-1.84h1.88l-.41 1.46a.51.51 0 0 1-.49.39zm-4.44 0v-1.85h1.65l-.4 1.85h-1.28zm0-5.63h2.46l-.42 2h-2zM10.9 7h3.3l-.45 2.11H10.9zm-3.56 7.73h1.78v1.85H7.71zM6.55 11h2.57v2H7zm-.37-1.87L5.75 7h3.37v2.13zm-2.51 5.61h1.84l.39 1.84H4.53a.51.51 0 0 1-.5-.4zM2.76 11h2l.4 2H3.24zm-.69-3.78a.46.46 0 0 1 .4-.2h1.46l.43 2.11h-2L2 7.68a.49.49 0 0 1 .07-.46z" fill="#f4981b"/></svg>