<svg data-name="Layer 1" xmlns="http://www.w3.org/2000/svg" viewBox="0 0 25 26"><path d="M.22 8.13l2.06 8.49a2.31 2.31 0 0 0 2.23 1.78h12.37a.94.94 0 0 1 .93 1 1 1 0 0 1-.95.92H6.49A2.71 2.71 0 0 0 3.79 23a2.65 2.65 0 0 0 5.29.32A2.7 2.7 0 0 0 9 22.13h3.1a2.91 2.91 0 0 0-.15.89 2.65 2.65 0 0 0 5.3.22 3 3 0 0 0-.14-1.12 2.79 2.79 0 0 0 .48-5.46l2.07-7.52 1.46-5.44h2.95a.8.8 0 0 0 .78-.8v-.09a.79.79 0 0 0-.78-.8h-3.43a1 1 0 0 0-1 .77l-.78 2.78a2.21 2.21 0 0 0-1.2-.35H2.48a2.32 2.32 0 0 0-1.82.86 2.4 2.4 0 0 0-.44 2.06zM7.31 23a.87.87 0 1 1-.87-.9.88.88 0 0 1 .87.9zm8.12 0a.88.88 0 1 1-1.75 0 .88.88 0 1 1 1.75 0zm2.33-13.87h-2.21L16 7h1.67a.48.48 0 0 1 .4.21.49.49 0 0 1 .09.46l-.4 1.43zm-1 3.78h-2l.42-2h2.1zm-1.4 3.67H14l.4-1.84h1.88l-.41 1.46a.51.51 0 0 1-.49.39zm-4.45 0v-1.85h1.65l-.4 1.85zm0-5.63h2.46l-.42 2h-2zm0-3.93h3.3l-.45 2.11h-2.88zm-3.6 7.71H9.1v1.85H7.69zM6.53 11H9.1v2H6.94zm-.37-1.87L5.73 7H9.1v2.13zm-2.51 5.61h1.84l.38 1.84H4.5a.52.52 0 0 1-.5-.4zM2.74 11h2l.41 2H3.21zM2 7.22A.5.5 0 0 1 2.45 7h1.46l.43 2.11h-2L2 7.68a.52.52 0 0 1 0-.46z" fill="#ccc"/></svg>