<svg id="Layer_1" data-name="Layer 1" xmlns="http://www.w3.org/2000/svg" viewBox="0 0 44 44"><defs><style>.cls-1{fill:#f4981b}.cls-2{fill:#020203}</style></defs><path class="cls-1" d="M13.31 6H1.76v8.76h11.55zm-.66 5.77a.77.77 0 0 1-1.54 0v-2.9a.77.77 0 1 1 1.54 0zM1.76 42.56h11.55v-10.2H1.76zm9.46-6.65a.77.77 0 1 1 1.54 0v2.88a.77.77 0 1 1-1.54 0zM1.76 27.93h11.66v2.88H1.76zM11.88 25.6a2.11 2.11 0 0 0 2.75-1.33h-4.07a2.56 2.56 0 0 0 1.32 1.33zM1.76 1.55h11.66v2.88H1.76zM14.85 1.55h11.66v2.88H14.85zM37.4 4.21c-.11-.11-.11-.22-.11-.44V1.55h-3.63v2.22a.66.66 0 0 1-.11.44l-4.29 6.21h12.43zM26.4 6H14.85v8.76h11.66L26.4 6zm-.77 5.77a.77.77 0 0 1-1.54 0v-2.9a.77.77 0 1 1 1.54 0zM19.91 25.6a2.11 2.11 0 0 0 2.75-1.33h-4.07a2.22 2.22 0 0 0 1.32 1.33zM40.15 33H30v7.31h10.15zm-3.63 2.21h-2.86a.75.75 0 0 1-.77-.77.76.76 0 0 1 .77-.78h2.86a.76.76 0 0 1 .77.78.75.75 0 0 1-.77.8z"/><path class="cls-1" d="M27.83 42.56h14.52V30.81H27.83zm.77-10.31a.75.75 0 0 1 .77-.77h11.55a.75.75 0 0 1 .77.77V41a.75.75 0 0 1-.77.77H29.26a.75.75 0 0 1-.77-.77l.11-8.76zM14.85 30.81H26.4l.56-.8v-2.25l-12.11.17v2.88zM14.85 42.56h11.66v-10.2H14.85zm9.35-6.65a.77.77 0 1 1 1.54 0v2.88a.77.77 0 1 1-1.54 0z"/><path class="cls-2" d="M43.12 29.37H27.83v-2.22a.75.75 0 0 0-.77-.77h-4.4a3.7 3.7 0 0 0 1.43-2.88.75.75 0 0 0-.77-.78h-5.61a.75.75 0 0 0-.77.78 3.7 3.7 0 0 0 1.43 2.88h-3.63a3.7 3.7 0 0 0 1.43-2.88.75.75 0 0 0-.77-.78H9.57a.75.75 0 0 0-.77.78 3.7 3.7 0 0 0 1.43 2.88H.77a.75.75 0 0 0-.77.77v16.07a.75.75 0 0 0 .77.78H42.9a.75.75 0 0 0 .77-.78V30a.55.55 0 0 0-.55-.63zM13.31 42.56H1.76v-10.2h11.55zm0-11.75H1.76v-2.88h11.55zm-1.43-5.21a2 2 0 0 1-1.32-1.33h4.07a2.21 2.21 0 0 1-2.75 1.33zm10.78-1.33a2.16 2.16 0 0 1-2.75 1.33 2 2 0 0 1-1.32-1.33zm3.74 18.29H14.85v-10.2h11.66l-.11 10.2zm0-12.56v.77H14.85v-2.84h11.66L26.4 30zm16 12.52H27.83V30.81h14.52zM1 16.18h26.17a.75.75 0 0 0 .77-.77v-3.66h15.29A.75.75 0 0 0 44 11a.66.66 0 0 0-.11-.44l-5-7.09V.78a.75.75 0 0 0-.72-.78h-5.06a.75.75 0 0 0-.77.78v2.66l-4.4 6.31v-9a.75.75 0 0 0-.77-.75H1a.75.75 0 0 0-.78.78v14.63a.93.93 0 0 0 .78.77zm32.56-12c.11-.11.11-.22.11-.44V1.55h3.63v2.22a.66.66 0 0 0 .11.44l4.29 6.21H29.26zM14.85 1.55h11.66v2.88H14.85zm0 4.43h11.66v8.76H14.85zM1.76 1.55h11.55v2.88H1.76zm0 4.45h11.55v8.76H1.76z"/><path class="cls-2" d="M32.23 25.71a.76.76 0 0 0-.77.78v.77h-2.2a.78.78 0 0 0 0 1.56h13.09a.78.78 0 0 0 0-1.56h-2.2v-.66a.75.75 0 0 0-.66-.78.83.83 0 0 0-.77.67v.77H33v-.77c-.11-.44-.33-.78-.77-.78zM29.26 41.78h11.66a.75.75 0 0 0 .77-.77v-8.76a.75.75 0 0 0-.77-.77H29.26a.75.75 0 0 0-.77.77V41a.93.93 0 0 0 .77.78zM30 33h10.15v7.31H30zM11.88 8.09a.75.75 0 0 0-.77.78v2.88a.77.77 0 0 0 1.54 0V8.87a.75.75 0 0 0-.77-.78zM25 8.09a.75.75 0 0 0-.77.78v2.88a.77.77 0 0 0 1.54 0V8.87c-.14-.45-.36-.78-.77-.78zM25 39.57a.76.76 0 0 0 .77-.78v-2.88a.77.77 0 1 0-1.54 0v2.88a.76.76 0 0 0 .77.78zM11.88 39.57a.76.76 0 0 0 .77-.78v-2.88a.77.77 0 1 0-1.54 0v2.88c.11.44.33.78.77.78z"/><path class="cls-2" d="M36.52 33.69h-2.86a.76.76 0 0 0-.77.78.75.75 0 0 0 .77.77h2.86a.75.75 0 0 0 .77-.77.76.76 0 0 0-.77-.78z"/></svg>