<svg id="Layer_1" data-name="Layer 1" xmlns="http://www.w3.org/2000/svg" viewBox="0 0 44 44"><defs><style>.cls-1{fill:none}.cls-2{fill:#f4981b}.cls-3{fill:#020203}</style></defs><path class="cls-1" d="M13.16 6H1.55v8.76h11.72L13.16 6zm-.67 5.77a.75.75 0 0 1-.77.77.76.76 0 0 1-.78-.77v-2.9a.76.76 0 0 1 .78-.78.75.75 0 0 1 .77.78z"/><path class="cls-2" d="M1.55 42.45h11.72v-10.2H1.55zm9.51-6.54a.77.77 0 1 1 1.54 0v2.88a.77.77 0 1 1-1.54 0zM1.55 27.93h11.72v2.88H1.55z"/><path class="cls-1" d="M11.72 25.6a2.12 2.12 0 0 0 2.76-1.33h-4.09a2.58 2.58 0 0 0 1.33 1.33zM1.55 1.55h11.72v2.88H1.55zM14.7 1.55h11.72v2.88H14.7zM37.37 4.21c-.11-.11-.11-.22-.11-.44V1.55h-3.65v2.22a.66.66 0 0 1-.11.44l-4.31 6.21h12.49zM26.31 6H14.7v8.76h11.72V6zm-.66 5.77a.78.78 0 0 1-1.55 0v-2.9a.78.78 0 1 1 1.55 0zM19.79 25.6a2.12 2.12 0 0 0 2.76-1.33h-4.09a2.24 2.24 0 0 0 1.33 1.33zM40.24 33H30.07v7.31h10.17zm-3.65 2.1h-2.87a.78.78 0 1 1 0-1.55h2.87a.76.76 0 0 1 .78.78.84.84 0 0 1-.78.8z"/><path class="cls-1" d="M27.75 42.45h14.59V30.7H27.75zm.77-10.2a.75.75 0 0 1 .78-.77H41a.75.75 0 0 1 .77.77V41a.75.75 0 0 1-.77.77H29.3a.75.75 0 0 1-.78-.77z"/><path class="cls-2" d="M14.7 30.81h11.61v-2.88H14.7v2.88zM14.7 42.45h11.72v-10.2H14.7zm9.4-6.54a.78.78 0 1 1 1.55 0v2.88a.78.78 0 1 1-1.55 0z"/><path class="cls-3" d="M43.12 29.37H27.75v-2.22a.75.75 0 0 0-.78-.77h-4.42A3.68 3.68 0 0 0 24 23.5a.75.75 0 0 0-.77-.78h-5.87a.76.76 0 0 0-.78.78A3.71 3.71 0 0 0 18 26.38h-3.63a3.68 3.68 0 0 0 1.44-2.88.75.75 0 0 0-.77-.78H9.18a.76.76 0 0 0-.78.78 3.68 3.68 0 0 0 1.44 2.88H.77a.75.75 0 0 0-.77.77v16.07a.75.75 0 0 0 .77.78h42.35a.75.75 0 0 0 .77-.78V30a.74.74 0 0 0-.77-.63zm-30 13.08H1.55v-10.2h11.72l-.11 10.2zm0-11.64H1.55v-2.88h11.72l-.11 2.88zm-1.4-5.21a2 2 0 0 1-1.33-1.33h4.09a2.18 2.18 0 0 1-2.76 1.33zm10.83-1.33a2.17 2.17 0 0 1-2.76 1.33 2 2 0 0 1-1.33-1.33zm3.76 18.18H14.7v-10.2h11.72v10.2zm0-12.41v.77H14.7v-2.88h11.72V30zm16 12.41H27.75V30.7h14.59zM.77 16.18h26.32a.75.75 0 0 0 .77-.77v-3.66h15.37A.75.75 0 0 0 44 11a.66.66 0 0 0-.11-.44l-5-7.09V.78a.75.75 0 0 0-.75-.78h-5.08a.76.76 0 0 0-.78.78v2.66l-4.42 6.31v-9a.75.75 0 0 0-.77-.75H.77A.75.75 0 0 0 0 .78v14.63a.93.93 0 0 0 .77.77zm32.73-12c.11-.11.11-.22.11-.44V1.55h3.65v2.22a.66.66 0 0 0 .11.44l4.31 6.21H29.19zM14.7 1.55h11.72v2.88H14.7zm0 4.45h11.72v8.76H14.7zM1.55 1.55h11.72v2.88H1.55zm0 4.45h11.72v8.76H1.55z"/><path class="cls-3" d="M32.17 25.71a.76.76 0 0 0-.77.78v.77h-2.21a.78.78 0 0 0 0 1.56h13.15a.78.78 0 0 0 0-1.56h-2.21v-.66a.75.75 0 0 0-.66-.78c-.33 0-.78.34-.78.67v.77h-5.75v-.77a.76.76 0 0 0-.77-.78zM29.3 41.78H41a.75.75 0 0 0 .77-.77v-8.76a.75.75 0 0 0-.77-.77H29.3a.75.75 0 0 0-.78.77V41a.75.75 0 0 0 .78.78zM30 33h10.13v7.31H30zM11.72 8.09a.76.76 0 0 0-.78.78v2.88a.76.76 0 0 0 .78.77.75.75 0 0 0 .77-.77V8.87a.75.75 0 0 0-.77-.78zM24.87 8.09a.75.75 0 0 0-.77.78v2.88a.78.78 0 0 0 1.55 0V8.87a.76.76 0 0 0-.78-.78zM24.87 39.57a.76.76 0 0 0 .78-.78v-2.88a.78.78 0 1 0-1.55 0v2.88a.76.76 0 0 0 .77.78zM11.72 39.57a.76.76 0 0 0 .77-.78v-2.88a.76.76 0 0 0-.77-.78.77.77 0 0 0-.78.78v2.88c.12.44.45.78.78.78z"/><path class="cls-3" d="M36.59 33.69h-2.87a.77.77 0 0 0-.78.78.76.76 0 0 0 .78.77h2.87a.75.75 0 0 0 .78-.77.85.85 0 0 0-.78-.78z"/></svg>