<svg xmlns="http://www.w3.org/2000/svg" xmlns:xlink="http://www.w3.org/1999/xlink" version="1.1" x="0px" y="0px" width="52px" height="52px" viewBox="0 0 52 52" enable-background="new 0 0 52 52" xml:space="preserve">
    <path fill="#FF6866" d="M38.1,52H5.6C2.5,52,0,49.5,0,46.4v-12c0-0.8,0.5-1.3,1.3-1.3s1.3,0.5,1.3,1.3v12c0,1.7,1.3,3,3,3h32.5c0.8,0,1.3,0.5,1.3,1.3C39.4,51.5,38.9,52,38.1,52z"/>
    <path fill="#FF6866" d="M46.4,52c-0.8,0-1.3-0.5-1.3-1.3c0-0.8,0.5-1.3,1.3-1.3c1.7,0,3-1.3,3-3v-12c0-0.8,0.5-1.3,1.3-1.3s1.3,0.5,1.3,1.3v12C52,49.5,49.5,52,46.4,52z"/>
    <path fill="#FF6866" d="M34.5,41.7H17.5c-0.8,0-1.3-0.5-1.3-1.3c0-0.8,0.5-1.3,1.3-1.3h16.9c0.8,0,1.3,0.5,1.3,1.3C35.8,41.1,35.1,41.7,34.5,41.7z"/>
    <path fill="#FF6866" d="M36.7,22.1l-8.1,11.6C28,34.7,27,35.2,26,35.2s-2-0.5-2.6-1.4l-8.1-11.6c-0.4-0.5-0.3-1.4,0.4-1.8   c0.7-0.4,1.4-0.3,1.8,0.4l7.1,10.5V1.3C24.7,0.5,25.4,0,26,0c0.6,0,1.3,0.5,1.3,1.3v29.9l7.2-10.5c0.4-0.6,1.2-0.8,1.8-0.4   C36.9,20.7,37.1,21.6,36.7,22.1z"/>
</svg>