<svg xmlns="http://www.w3.org/2000/svg" xmlns:xlink="http://www.w3.org/1999/xlink" version="1.1" x="0px" y="0px" width="52px" height="52px" viewBox="0 0 52 52" enable-background="new 0 0 52 52" xml:space="preserve">
    <g transform="translate(-4.000000, 0.000000)">
        <path fill="#FF6866" d="M25.7,39.9h8.7c0.5,0,0.9-0.3,0.9-0.9c0-0.5-0.3-0.9-0.9-0.9h-8.7c-0.5,0-0.9,0.3-0.9,0.9    C24.8,39.5,25.1,39.9,25.7,39.9L25.7,39.9z M25.7,34.7h13.9c0.5,0,0.9-0.3,0.9-0.9c0-0.5-0.3-0.9-0.9-0.9H25.7    c-0.5,0-0.9,0.3-0.9,0.9C24.8,34.3,25.1,34.7,25.7,34.7L25.7,34.7z M24.8,28.6c0,0.5,0.3,0.9,0.9,0.9h15.6c0.5,0,0.9-0.3,0.9-0.9    s-0.3-0.9-0.9-0.9H25.7C25.1,27.7,24.8,28.1,24.8,28.6L24.8,28.6z M25.7,24.3h12.1c0.5,0,0.9-0.3,0.9-0.9c0-0.5-0.3-0.9-0.9-0.9    H25.7c-0.5,0-0.9,0.3-0.9,0.9C24.8,23.9,25.1,24.3,25.7,24.3L25.7,24.3z M25.7,19.1h13.9c0.5,0,0.9-0.3,0.9-0.9s-0.3-0.9-0.9-0.9    H25.7c-0.5,0-0.9,0.3-0.9,0.9S25.1,19.1,25.7,19.1L25.7,19.1z M20.5,38.1h-1.7c-0.5,0-0.9,0.3-0.9,0.9c0,0.5,0.3,0.9,0.9,0.9h1.7    c0.5,0,0.9-0.3,0.9-0.9C21.3,38.5,21,38.1,20.5,38.1L20.5,38.1z M20.5,32.9h-1.7c-0.5,0-0.9,0.3-0.9,0.9c0,0.5,0.3,0.9,0.9,0.9    h1.7c0.5,0,0.9-0.3,0.9-0.9C21.3,33.3,21,32.9,20.5,32.9L20.5,32.9z M20.5,27.7h-1.7c-0.5,0-0.9,0.3-0.9,0.9s0.3,0.9,0.9,0.9h1.7    c0.5,0,0.9-0.3,0.9-0.9S21,27.7,20.5,27.7L20.5,27.7z M20.5,22.5h-1.7c-0.5,0-0.9,0.3-0.9,0.9c0,0.5,0.3,0.9,0.9,0.9h1.7    c0.5,0,0.9-0.3,0.9-0.9C21.3,22.9,21,22.5,20.5,22.5L20.5,22.5z M18.7,19.1h1.7c0.5,0,0.9-0.3,0.9-0.9s-0.3-0.9-0.9-0.9h-1.7    c-0.5,0-0.9,0.3-0.9,0.9S18.2,19.1,18.7,19.1L18.7,19.1z M21.3,8.7h17.3V5.2h-4.4c-0.4,0-0.8-0.3-0.9-0.7C33,2.9,31.6,1.7,30,1.7    s-3,1.1-3.4,2.8c-0.1,0.4-0.4,0.7-0.9,0.7h-4.4V8.7z M19.6,9.5V4.3c0-0.5,0.3-0.9,0.9-0.9h4.6C25.8,1.4,27.7,0,30,0    c2.3,0,4.2,1.4,4.9,3.5h4.6c0.5,0,0.9,0.3,0.9,0.9v5.2c0,0.5-0.3,0.9-0.9,0.9H20.5C19.9,10.4,19.6,10.1,19.6,9.5L19.6,9.5z     M30,3.5c-1,0-1.7,0.8-1.7,1.7S29,6.9,30,6.9s1.7-0.8,1.7-1.7S31,3.5,30,3.5L30,3.5z M43,48.5c0.3,0,0.4-0.1,0.6-0.3l5.2-5.2    c0.2-0.2,0.3-0.3,0.3-0.6V7.8c0-0.5-0.3-0.9-0.9-0.9H43c-0.5,0-0.9,0.3-0.9,0.9s0.3,0.9,0.9,0.9h4.3v33.5l-4.9,4.9    c-0.3,0.3-0.3,0.9,0,1.2C42.6,48.4,42.7,48.5,43,48.5L43,48.5z M17,6.9h-5.2c-0.5,0-0.9,0.3-0.9,0.9v37.3c0,1.9,1.6,3.5,3.5,3.5    h25.1c0.5,0,0.9-0.3,0.9-0.9v-5.2c0-0.4,0.3-0.9,0.9-0.9h3.5c0.5,0,0.9-0.3,0.9-0.9c0-0.5-0.3-0.9-0.9-0.9h-3.5    c-1.4,0-2.6,1.2-2.6,2.6v4.3H14.4c-1,0-1.7-0.8-1.7-1.7V8.7H17c0.5,0,0.9-0.3,0.9-0.9S17.5,6.9,17,6.9L17,6.9z M52.5,7.8v39.9    c0,2.3-2.1,4.3-4.3,4.3H11.8c-2.3,0-4.3-2.1-4.3-4.3V7.8c0-2.3,2.1-4.3,4.3-4.3H17c0.5,0,0.9,0.3,0.9,0.9S17.5,5.2,17,5.2h-5.2    c-1.3,0-2.6,1.3-2.6,2.6v39.9c0,1.3,1.3,2.6,2.6,2.6h36.4c1.3,0,2.6-1.3,2.6-2.6V7.8c0-1.3-1.3-2.6-2.6-2.6H43    c-0.5,0-0.9-0.3-0.9-0.9s0.3-0.9,0.9-0.9h5.2C50.5,3.5,52.5,5.5,52.5,7.8L52.5,7.8z"/>
    </g>
</svg>