<?xml version="1.0" encoding="iso-8859-1"?>
<!-- Generator: Adobe Illustrator 19.0.0, SVG Export Plug-In . SVG Version: 6.00 Build 0)  -->
<svg version="1.1" id="Capa_1" xmlns="http://www.w3.org/2000/svg" xmlns:xlink="http://www.w3.org/1999/xlink" x="0px" y="0px"
	 viewBox="0 0 511.997 511.997" style="enable-background:new 0 0 511.997 511.997;" xml:space="preserve">
<g>
	<g>
		<path d="M438.831,211.38c-5.66-1.19-11.42-1.86-17.11-1.98l-54.257-54.252l67.776-67.776
			c10.046-10.047,15.356-22.507,15.356-36.034c0-28.304-23.027-51.332-51.332-51.332c-4.143,0-7.5,3.357-7.5,7.5s3.357,7.5,7.5,7.5
			c20.034,0,36.332,16.299,36.332,36.332c0,9.463-3.791,18.256-10.964,25.427l-67.776,67.776l-54.263-54.258
			c-1.06-50.219-41.908-90.278-92.168-90.278h-0.03c-24.334,0-47.675,9.526-65.128,26.978L19.312,152.942
			c-25.108,25.108-26.382,66.813,0,93.198c20.972,20.973,52.694,24.949,77.748,11.5l61.608-33.049
			c2.118-1.061,3.606-3.057,4.02-5.41l0.01-0.06c0.822-4.938-3.358-9.368-8.47-8.66l-0.02,0.01c-0.835,0.107-1.787,0.416-2.66,0.92
			L89.97,244.429c-19.072,10.225-43.609,7.532-60.048-8.89c-20.828-20.85-18.943-53.025,0-71.988L155.878,37.595
			c14.56-14.56,33.939-22.579,54.549-22.589c42.802,0,77.187,34.603,77.187,77.198c0,0.359,0,0.739,0,1.109
			c-0.029,2.04,0.75,3.96,2.19,5.391L413.291,222.2c1.46,1.449,3.45,2.21,5.47,2.189c5.637,0,10.623,0.338,17,1.67
			c35.575,7.464,61.238,38.823,61.238,75.508c-0.01,20.619-8.03,39.999-22.589,54.56L348.453,482.083
			c-20.412,20.391-52.586,19.384-71.988,0c-16.555-16.555-19.031-41.156-8.891-60.048l33.149-61.788c1.58-2.931,1.05-6.49-1.31-8.84
			L181.816,233.8c-2.929-2.928-7.665-2.945-10.61,0c-2.918,2.898-2.95,7.672,0,10.6c0,0.011,0.01,0.011,0.01,0.011l113.657,113.656
			l-30.509,56.88c-13.328,24.828-9.665,56.594,11.49,77.748c25.355,25.355,67.107,26.1,93.208,0l125.957-125.968
			c17.753-17.732,26.979-41.208,26.979-65.158C511.999,257.727,481.254,220.233,438.831,211.38z"/>
	</g>
</g>
<g>
	<g>
		<path d="M173.481,111.783l-19.717-19.718c-3.605-3.605-8.734-5.126-13.721-4.064c-5,1.063-9.079,4.55-10.911,9.327
			c-3.069,8.003-4.625,16.436-4.625,25.061c0,8.626,1.556,17.058,4.625,25.06c1.832,4.777,5.911,8.264,10.911,9.327
			c1.046,0.223,2.098,0.332,3.142,0.332c3.929,0,7.73-1.547,10.58-4.396l19.716-19.717c2.833-2.833,4.394-6.6,4.394-10.606
			C177.875,118.382,176.314,114.616,173.481,111.783z M143.139,142.078c-2.409-6.282-3.631-12.906-3.631-19.689
			c0-6.783,1.222-13.408,3.626-19.738c0,0,0.008,0.006,0.024,0.021l19.717,19.716L143.139,142.078z"/>
	</g>
</g>
<g>
	<g>
		<path d="M225.019,163.318L205.3,143.6c-5.848-5.848-15.364-5.848-21.212,0l-19.717,19.717v0.001
			c-3.605,3.605-5.124,8.734-4.063,13.721c1.062,5,4.549,9.078,9.327,10.911c8.003,3.069,16.435,4.625,25.06,4.625
			s17.058-1.556,25.061-4.625c4.777-1.833,8.264-5.912,9.327-10.912C230.144,172.053,228.624,166.923,225.019,163.318z
			 M194.695,177.574c-6.783,0-13.408-1.222-19.74-3.627c0,0,0.006-0.008,0.021-0.023l19.719-19.718l19.69,19.737
			C208.102,176.352,201.477,177.574,194.695,177.574z"/>
	</g>
</g>
<g>
	<g>
		<path d="M229.081,67.738c-1.062-5-4.548-9.078-9.326-10.911c-8.003-3.069-16.435-4.625-25.06-4.625s-17.058,1.556-25.061,4.625
			c-4.777,1.833-8.264,5.912-9.327,10.911c-1.061,4.986,0.459,10.116,4.064,13.722l19.717,19.718
			c2.924,2.924,6.765,4.386,10.606,4.386c3.841,0,7.683-1.462,10.607-4.386l19.718-19.718v-0.001
			C228.623,77.854,230.142,72.725,229.081,67.738z M214.412,70.852l-19.718,19.717l-19.69-19.736
			c6.283-2.409,12.908-3.631,19.69-3.631c6.783,0,13.408,1.222,19.738,3.627C214.433,70.83,214.427,70.838,214.412,70.852z"/>
	</g>
</g>
<g>
	<g>
		<path d="M260.256,97.327c-1.833-4.777-5.912-8.263-10.912-9.326c-4.988-1.063-10.117,0.459-13.721,4.063l-19.716,19.717
			c-2.833,2.833-4.394,6.6-4.394,10.607s1.561,7.773,4.394,10.606l19.717,19.718c2.849,2.849,6.65,4.396,10.58,4.396
			c1.043,0,2.096-0.109,3.142-0.332c5-1.063,9.078-4.55,10.91-9.328c3.069-8.003,4.625-16.435,4.625-25.059
			S263.325,105.332,260.256,97.327z M246.254,142.127c0,0-0.008-0.006-0.024-0.021l-19.718-19.716l19.737-19.691
			c2.409,6.284,3.63,12.909,3.63,19.691C249.879,129.171,248.658,135.796,246.254,142.127z"/>
	</g>
</g>
<g>
	<g>
		<path d="M355.023,245.672c-15.163,0-27.499,12.337-27.499,27.499c0,15.163,12.337,27.499,27.499,27.499
			s27.499-12.337,27.499-27.499C382.523,258.009,370.186,245.672,355.023,245.672z M355.023,285.671c-6.893,0-12.5-5.607-12.5-12.5
			s5.608-12.5,12.5-12.5c6.893,0,12.5,5.607,12.5,12.5S361.916,285.671,355.023,285.671z"/>
	</g>
</g>
<g>
	<g>
		<path d="M355.023,315.676c-15.163,0-27.499,12.337-27.499,27.499s12.337,27.499,27.499,27.499s27.499-12.337,27.499-27.499
			S370.186,315.676,355.023,315.676z M355.023,355.675c-6.893,0-12.5-5.607-12.5-12.5s5.608-12.5,12.5-12.5
			c6.893,0,12.5,5.607,12.5,12.5S361.916,355.675,355.023,355.675z"/>
	</g>
</g>
<g>
	<g>
		<path d="M425.027,245.672c-15.163,0-27.499,12.337-27.499,27.499c0,15.163,12.337,27.499,27.499,27.499
			c15.163,0,27.499-12.337,27.499-27.499C452.526,258.009,440.189,245.672,425.027,245.672z M425.027,285.671
			c-6.893,0-12.5-5.607-12.5-12.5s5.608-12.5,12.5-12.5c6.893,0,12.5,5.607,12.5,12.5S431.919,285.671,425.027,285.671z"/>
	</g>
</g>
<g>
	<g>
		<path d="M425.027,315.676c-15.163,0-27.499,12.337-27.499,27.499s12.337,27.499,27.499,27.499
			c15.163,0,27.499-12.337,27.499-27.499S440.189,315.676,425.027,315.676z M425.027,355.675c-6.893,0-12.5-5.607-12.5-12.5
			s5.608-12.5,12.5-12.5c6.893,0,12.5,5.607,12.5,12.5S431.919,355.675,425.027,355.675z"/>
	</g>
</g>
<g>
	<g>
		<path d="M278.727,246.169l-12.892-12.892c-8.772-8.771-23.045-8.771-31.819,0c-4.25,4.25-6.59,9.9-6.59,15.91
			c0,6.011,2.341,11.66,6.59,15.91l12.892,12.892c4.25,4.249,9.9,6.59,15.91,6.59c6.009,0,11.659-2.34,15.911-6.59
			c4.249-4.25,6.59-9.9,6.589-15.91C285.317,256.068,282.976,250.418,278.727,246.169z M268.123,267.382
			c-1.417,1.417-3.302,2.197-5.305,2.197c-2.003,0-3.887-0.78-5.303-2.197l-12.892-12.892c-1.417-1.416-2.197-3.3-2.197-5.303
			c0-2.004,0.78-3.887,2.196-5.303c1.463-1.462,3.383-2.193,5.304-2.193c1.92,0,3.841,0.731,5.303,2.193l12.893,12.892
			c1.416,1.416,2.196,3.3,2.196,5.303C270.318,264.083,269.539,265.966,268.123,267.382z"/>
	</g>
</g>
<g>
</g>
<g>
</g>
<g>
</g>
<g>
</g>
<g>
</g>
<g>
</g>
<g>
</g>
<g>
</g>
<g>
</g>
<g>
</g>
<g>
</g>
<g>
</g>
<g>
</g>
<g>
</g>
<g>
</g>
</svg>
