<svg id="Layer_1" data-name="Layer 1" xmlns="http://www.w3.org/2000/svg" viewBox="0 0 30 30"><defs><style>.cls-2{fill:#fff}</style></defs><path d="M15 0A15 15 0 1 1 0 15 15 15 0 0 1 15 0zm0 0" fill="#dd4b39"/><path class="cls-2" d="M22.59 12.47v1.69h1.69v1.68h-1.69v1.69h-1.68v-1.69h-1.69v-1.68h1.69v-1.69zm0 0M7.41 19.22a6 6 0 0 1 .09-8.44 5.78 5.78 0 0 1 6.28-1.22l.84.47.94.66-1.5 1.5-.56-.38a3.59 3.59 0 0 0-4.41.57 3.93 3.93 0 0 0 0 5.43 3.62 3.62 0 0 0 5.25 0 3 3 0 0 0 .85-1.5v-.18h-3.38v-1.88h5.35l.09.47V16a5.17 5.17 0 0 1-1.41 3.28 6.2 6.2 0 0 1-8.43-.09zm0 0"/></svg>