<svg id="Layer_1" data-name="Layer 1" xmlns="http://www.w3.org/2000/svg" viewBox="0 0 44 29.73"><defs><style>.cls-1{fill:#f4981b}.cls-2{fill:#020203}</style></defs><g id="Layer_2" data-name="Layer 2"><path class="cls-1" d="M33.86 17.23h9.35v9.35h-9.35zM.59 17.03h9.35v9.35H.59z"/><path class="cls-2" d="M43.31 16.54H22.74v-1h13.48a.67.67 0 0 0 .69-.69V.69a.67.67 0 0 0-.69-.69H7.78a.67.67 0 0 0-.69.69v14.17a.67.67 0 0 0 .69.69h13.48v1H.69a.67.67 0 0 0-.69.69v9.45a.67.67 0 0 0 .69.68h4V29a.69.69 0 0 0 1.41 0v-1.64h31.7V29a.69.69 0 1 0 1.38 0v-1.64h4.13a.67.67 0 0 0 .69-.68v-9.45a.67.67 0 0 0-.69-.69zM35.53 1.38v10.43h-27V1.38zm-27 11.81h27v1h-27zm24.61 4.73V26H10.93v-8.08zm-31.79 0h8.1V26H1.38zM42.62 26h-8.07v-8.08h8.07z"/><path class="cls-2" d="M10.14 6.1a.78.78 0 0 0 .49-.19L13 3.54a.65.65 0 0 0 0-1 .65.65 0 0 0-1 0L9.65 4.92a.66.66 0 0 0 0 1 1.75 1.75 0 0 0 .49.18zM10.14 10.83a.74.74 0 0 0 .49-.2l7.09-7.09a.66.66 0 0 0 0-1 .66.66 0 0 0-1 0L9.65 9.65a.65.65 0 0 0 0 1 1.56 1.56 0 0 0 .49.18zM5.91 20.08a.78.78 0 0 0 .19-.49.76.76 0 0 0-.19-.49.65.65 0 0 0-1 0 .72.72 0 0 0-.2.49.74.74 0 0 0 .2.49.71.71 0 0 0 1 0zM38.09 20.08a.71.71 0 0 0 1 0 .74.74 0 0 0 .2-.49.72.72 0 0 0-.2-.49.65.65 0 0 0-1 0 .76.76 0 0 0-.19.49.78.78 0 0 0 .19.49z"/></g></svg>