<svg id="Layer_1" data-name="Layer 1" xmlns="http://www.w3.org/2000/svg" viewBox="0 0 44 29.72"><defs><style>.cls-1{fill:#f4981b}.cls-2{fill:#020203}</style></defs><path class="cls-1" d="M.59 17.22H43.3v9.35H.59zM7.97.59h28.24v14.27H7.97z"/><path class="cls-2" d="M43.3 16.53H22.73v-1h13.48a.68.68 0 0 0 .69-.69V.69a.68.68 0 0 0-.69-.69H7.87a.68.68 0 0 0-.69.69v14.17a.68.68 0 0 0 .69.69h13.48v1H.69a.68.68 0 0 0-.69.69v9.45a.68.68 0 0 0 .69.69h4V29a.69.69 0 0 0 1.41 0v-1.64h31.69V29a.69.69 0 1 0 1.37 0v-1.64h4.14a.67.67 0 0 0 .68-.69v-9.45c.1-.39-.29-.69-.68-.69zM35.52 1.38v10.43h-27V1.38zm-27 11.81h27v1h-27zm24.6 4.72V26h-22.2v-8.09zm-31.68 0h8.1V26H1.48zM42.61 26h-8.07v-8.09h8.07z"/><path class="cls-2" d="M10.23 6.1a.76.76 0 0 0 .5-.2l2.36-2.36a.66.66 0 0 0 0-1 .66.66 0 0 0-1 0L9.74 4.92a.66.66 0 0 0 0 1 .76.76 0 0 0 .49.18zM10.23 10.82a.76.76 0 0 0 .5-.19l7.08-7.09a.65.65 0 0 0 0-1 .65.65 0 0 0-1 0l-7.07 7.1a.67.67 0 0 0 0 1 .75.75 0 0 0 .49.18zM6 20.07a.72.72 0 0 0 .2-.49.74.74 0 0 0-.2-.49.64.64 0 0 0-1 0 .74.74 0 0 0-.2.49.72.72 0 0 0 .2.49.74.74 0 0 0 .49.2c.22 0 .32-.1.51-.2zM38.08 20.07a.76.76 0 0 0 .49.2.68.68 0 0 0 .69-.69.74.74 0 0 0-.2-.49.64.64 0 0 0-1 0 .74.74 0 0 0-.2.49.72.72 0 0 0 .22.49z"/></svg>