<svg xmlns="http://www.w3.org/2000/svg" xmlns:xlink="http://www.w3.org/1999/xlink" version="1.1" x="0px" y="0px" width="52px" height="52px" viewBox="0 0 52 52" enable-background="new 0 0 52 52" xml:space="preserve">
    <path fill="#FF6866" d="M47.6,7.2H29.3c-0.5,0-0.8,0.4-0.8,0.8c0,0.5,0.4,0.8,0.8,0.8h18.3c1.5,0,2.8,1.2,2.8,2.8v1   c-0.8-0.6-1.7-1-2.8-1H26.8V8.1c0-2.4-2-4.4-4.4-4.4h-18C2,3.7,0,5.6,0,8.1v39.4c0,0.5,0.4,0.8,0.8,0.8h50.3c0.5,0,0.8-0.4,0.8-0.8   V11.7C52,9.2,50,7.2,47.6,7.2L47.6,7.2z M50.3,46.7H1.7V8.1c0-1.5,1.2-2.8,2.8-2.8h18c1.5,0,2.8,1.2,2.8,2.8v4.4   c0,0.5,0.4,0.8,0.8,0.8h21.6c1.5,0,2.8,1.2,2.8,2.8V46.7z"/>
    <path fill="#FF6866" d="M37.3,29.3c2.3,0,4.2-1.9,4.2-4.2S39.6,21,37.3,21s-4.2,1.9-4.2,4.2S35,29.3,37.3,29.3z M37.3,22.7   c1.4,0,2.5,1.1,2.5,2.5c0,1.4-1.1,2.5-2.5,2.5c-1.4,0-2.5-1.1-2.5-2.5C34.8,23.8,35.9,22.7,37.3,22.7z"/>
    <path fill="#FF6866" d="M37.3,31c-1.1,0-2.2,0.3-3.2,0.8c-0.4,0.2-0.6,0.7-0.3,1.1c0.2,0.4,0.7,0.6,1.1,0.3   c0.7-0.4,1.6-0.6,2.4-0.6c2.6,0,4.7,1.9,5.1,4.4h-5.1c-0.5,0-0.8,0.4-0.8,0.8s0.4,0.8,0.8,0.8h6c0.5,0,0.8-0.4,0.8-0.8   C44.2,34,41.1,31,37.3,31L37.3,31z"/>
    <path fill="#FF6866" d="M14.8,37H9.6c0.4-2.5,2.5-4.4,5.1-4.4c0.9,0,1.7,0.2,2.4,0.6c0.4,0.2,0.9,0.1,1.1-0.3   c0.2-0.4,0.1-0.9-0.3-1.1c-1-0.5-2.1-0.8-3.2-0.8c-3.8,0-6.8,3.1-6.8,6.8c0,0.5,0.4,0.8,0.8,0.8h6.1c0.5,0,0.8-0.4,0.8-0.8   S15.2,37,14.8,37z"/>
    <path fill="#FF6866" d="M14.7,29.3c2.3,0,4.2-1.9,4.2-4.2S17,21,14.7,21s-4.2,1.9-4.2,4.2S12.4,29.3,14.7,29.3z M14.7,22.7   c1.4,0,2.5,1.1,2.5,2.5c0,1.4-1.1,2.5-2.5,2.5c-1.4,0-2.5-1.1-2.5-2.5C12.2,23.8,13.3,22.7,14.7,22.7z"/>
    <path fill="#FF6866" d="M26,29.6c2.9,0,5.3-2.4,5.3-5.3s-2.4-5.3-5.3-5.3s-5.3,2.4-5.3,5.3S23.1,29.6,26,29.6z M26,20.6   c2,0,3.7,1.7,3.7,3.7S28,27.9,26,27.9s-3.7-1.7-3.7-3.7S24,20.6,26,20.6z"/>
    <path fill="#FF6866" d="M26,31.3c-5,0-9,4-9,9c0,0.5,0.4,0.8,0.8,0.8h16.4c0.5,0,0.8-0.4,0.8-0.8C35,35.3,31,31.3,26,31.3z    M18.7,39.4c0.4-3.7,3.5-6.5,7.3-6.5s6.9,2.9,7.3,6.5H18.7L18.7,39.4z"/>
</svg>