<svg id="Layer_1" data-name="Layer 1" xmlns="http://www.w3.org/2000/svg" viewBox="0 0 50.85 38"><defs><style>.cls-1{fill:#666}</style></defs><path class="cls-1" d="M50.61 10.41L40.75.55a.81.81 0 0 0-1.15 0l-4.93 4.93a.81.81 0 0 0 0 1.15l.49.49L34 8.25a2.52 2.52 0 0 1-2.83.5 7 7 0 0 0-6.23.25 5.66 5.66 0 0 0-1.31-.16 5.42 5.42 0 0 0-1.87.33 2.54 2.54 0 0 1-2.68-.56l-2-2 .24-.24a.8.8 0 0 0 .24-.58.78.78 0 0 0-.24-.57L12.36.24a.81.81 0 0 0-1.15 0l-11 11a.81.81 0 0 0 0 1.15l4.93 4.93a.78.78 0 0 0 .57.24.8.8 0 0 0 .58-.24l.32-.32L8 18.43a2.46 2.46 0 0 1 .69 1.31 12.76 12.76 0 0 0 3.54 6.7l.27.27a2.92 2.92 0 0 0 2.12 4.93h.14a2.93 2.93 0 0 0 2.92 3.07h.07a2.92 2.92 0 0 0 5 2.13l.14-.15a2.69 2.69 0 0 0 .89.16 2.7 2.7 0 0 0 2.55-1.75l.09.08a2.68 2.68 0 0 0 1.93.8 2.72 2.72 0 0 0 1.93-.8 2.75 2.75 0 0 0 .63-1A2.73 2.73 0 0 0 35.26 32a2.74 2.74 0 0 0-.08-.64 2.76 2.76 0 0 0 1.39-.75 2.72 2.72 0 0 0 .29-3.51l.65-.65a12.69 12.69 0 0 0 3.55-6.79 2.2 2.2 0 0 1 .62-1.16l2.42-2.42.43.42a.81.81 0 0 0 1.15 0l4.93-4.93a.81.81 0 0 0 0-1.15zM2 11.79L11.79 2l3.78 3.78-9.83 9.79zm11.74 17.85a1.3 1.3 0 0 1 0-1.84 1.29 1.29 0 0 1 .92-.38 1.3 1.3 0 0 1 .92 2.22 1.3 1.3 0 0 1-1.84 0zm4 3.44a1.28 1.28 0 0 1-.92-.38 1.3 1.3 0 0 1 0-1.83 1.29 1.29 0 0 1 .92-.38 1.27 1.27 0 0 1 .92.38 1.3 1.3 0 0 1-.92 2.21zm3.9 2.61a1.3 1.3 0 1 1 0-1.84 1.3 1.3 0 0 1-.02 1.84zm13.8-6.24a1.1 1.1 0 0 1-1.57 0L26 21.58a.81.81 0 0 0-1.15 1.15l8.48 8.48a1.11 1.11 0 1 1-1.56 1.57l-1.43-1.44-6.64-6.61a.8.8 0 0 0-1.14 0 .81.81 0 0 0 0 1.15l6.6 6.6A1.11 1.11 0 0 1 27.58 34l-7.15-7.16a.81.81 0 0 0-1.15 0 .8.8 0 0 0 0 1.14l5.3 5.31a1.06 1.06 0 0 1 .32.78 1.09 1.09 0 0 1-1.11 1.1.65.65 0 0 1-.2 0 2.94 2.94 0 0 0-.83-2.5 2.89 2.89 0 0 0-2.06-.85h-.07a2.92 2.92 0 0 0-2.92-3h-.15a2.91 2.91 0 0 0-3.57-3l-.58-.59a11.13 11.13 0 0 1-3.09-5.85 4.07 4.07 0 0 0-1.14-2.16l-1.42-1.37 8.14-8.14 2 2a4.15 4.15 0 0 0 2.93 1.19 4.35 4.35 0 0 0 1.46-.25 3 3 0 0 1 .71-.15l-5 5a3.24 3.24 0 0 0-.95 2.31 3.24 3.24 0 0 0 3.25 3.25 3.24 3.24 0 0 0 2.31-.95l2.52-2.52.68.68 9.52 9.52a1.1 1.1 0 0 1 .32.78 1.06 1.06 0 0 1-.23.88zm5.11-12.11a3.83 3.83 0 0 0-1.07 2 11 11 0 0 1-3.1 5.93l-.62.63-5.16-5.12h.34a4.25 4.25 0 0 0 1.58-.3.81.81 0 1 0-.61-1.48c-2.09.86-4.6-1.5-4.88-1.77l-.68-.68.77-.78a.81.81 0 0 0-1.14-1.15l-1.35 1.35L21.46 19a1.63 1.63 0 1 1-2.31-2.31l5.35-5.34a4.94 4.94 0 0 1 1-.78 5.28 5.28 0 0 1 2.82-.8 5.39 5.39 0 0 1 2.23.48 4.17 4.17 0 0 0 4.65-.83l1.13-1.13L43 14.92zm4.57-2.57l-8.73-8.71 3.78-3.79L48.89 11z"/><circle class="cls-1" cx="45.4" cy="11.41" r=".81"/><circle class="cls-1" cx="5.33" cy="12.22" r=".81"/></svg>