<svg id="Layer_1" data-name="Layer 1" xmlns="http://www.w3.org/2000/svg" viewBox="0 0 44 35.28"><defs><style>.cls-1{fill:#f4981b}.cls-2{fill:#f4991d}.cls-3{fill:#020203}</style></defs><path class="cls-1" d="M20.64 13.24h2.93v20.53h-2.93z"/><path class="cls-2" d="M12.57 10.31h19.07v1.47H12.57zM12.57 17.64h-8.8a.71.71 0 0 1-.77-.73V1.51H1.57v19.07H13.3v-2.2a.79.79 0 0 0-.73-.74z"/><path class="cls-1" d="M1.57 33.77h.74l1.36-11.73-1.1-.4-1 12.13z"/><path class="cls-2" d="M41.07 16.91a.72.72 0 0 1-.74.73h-8.8a.72.72 0 0 0-.73.74v2.2h11.73V1.51h-1.46z"/><path class="cls-1" d="M11.11 22.04l1.36 11.73h.73l-1.05-12.05-1.04.32zM40.44 22.04l1.36 11.73h.73l-1.04-12.03-1.05.3zM30.91 33.77h.73L33 22.04h-.73l-1.36 11.73z"/><path class="cls-3" d="M13.3 22h.63a.72.72 0 0 0 .74-.73v-2.89a2.15 2.15 0 0 0-2.2-2.2H4.4V.78A.72.72 0 0 0 3.67 0H.73A.72.72 0 0 0 0 .78v20.53a.71.71 0 0 0 .73.69h.63L.1 34.4a.8.8 0 0 0 .63.84H3a.69.69 0 0 0 .73-.63L5.13 22h4.51L11 34.61c0 .42.31.63.73.63h2.2a.72.72 0 0 0 .74-.73v-.11zm-11 11.78h-.73L2.83 22h.73zm10.17 0L11.21 22h.73l1.26 11.78zm.83-13.2H1.57V1.51H3v15.4a.71.71 0 0 0 .73.73h8.8a.72.72 0 0 1 .73.74zM44 34.4L42.64 22h.63a.71.71 0 0 0 .73-.73V.78a.72.72 0 0 0-.73-.78h-2.94a.72.72 0 0 0-.73.74v15.4h-8.07a2.15 2.15 0 0 0-2.2 2.2v2.93a.72.72 0 0 0 .74.73h.63l-1.26 12.4a.8.8 0 0 0 .63.84h2.3a.69.69 0 0 0 .73-.63L34.47 22H39l1.36 12.57c0 .42.32.63.74.63h2.2a.81.81 0 0 0 .7-.8zm-12.36-.62h-.74L32.27 22H33zm10.16 0L40.54 22h.74l1.25 11.74zm.73-13.2H30.8v-2.2a.72.72 0 0 1 .73-.74h8.8a.72.72 0 0 0 .74-.73V1.51h1.46z"/><path class="cls-3" d="M33 12.51V9.58a.72.72 0 0 0-.73-.74H11.84a.73.73 0 0 0-.74.74v2.93a.72.72 0 0 0 .74.73h7.33v21.27a.72.72 0 0 0 .73.73h4.4a.72.72 0 0 0 .74-.73V13.24h7.33a.69.69 0 0 0 .63-.73zm-9.43 21.27h-2.93V13.24h2.93zm8-22h-19v-1.47h19z"/></svg>