<svg id="Layer_1" data-name="Layer 1" xmlns="http://www.w3.org/2000/svg" viewBox="0 0 44 35.28"><defs><style>.cls-1{fill:#f4981b}.cls-2{fill:none}.cls-3{fill:#020203}</style></defs><path class="cls-1" d="M20.48 13.23h2.94v20.58h-2.94z"/><path class="cls-2" d="M12.39 10.29H31.5v1.47H12.39zM12.39 17.64H3.68a.72.72 0 0 1-.74-.73V1.47H1.47v19.11h11.76v-2.2a.89.89 0 0 0-.84-.74z"/><path class="cls-1" d="M1.47 33.81h.74l1.36-11.76h-.74L1.47 33.81z"/><path class="cls-2" d="M41.06 16.91a.72.72 0 0 1-.74.73H31.5a.72.72 0 0 0-.73.74v2.2h11.76V1.47h-1.47z"/><path class="cls-1" d="M11.03 22.05l1.36 11.76h.74l-1.37-11.76h-.73zM40.43 22.05l1.37 11.76h.62l-1.26-11.76h-.73zM30.87 33.81h.74l1.36-11.76h-.73l-1.37 11.76z"/><path class="cls-3" d="M13.23 22.05h.63a.72.72 0 0 0 .74-.73v-2.94a2.16 2.16 0 0 0-2.21-2.21h-8V.74A.72.72 0 0 0 3.68 0H.74A.73.73 0 0 0 0 .74v20.58a.72.72 0 0 0 .74.73h.63L0 34.44a.8.8 0 0 0 .63.84h2.31a.7.7 0 0 0 .74-.63L5 22.05h4.56l1.36 12.6c0 .42.32.63.74.63h2.2a.72.72 0 0 0 .74-.73v-.11zm-11 11.76h-.76l1.26-11.76h.74zm10.18 0l-1.28-11.76h.74l1.26 11.76zm.74-13.23H1.47V1.47h1.47v15.44a.72.72 0 0 0 .74.73h8.71a.73.73 0 0 1 .74.74zM44 34.44l-1.37-12.39h.63a.72.72 0 0 0 .74-.73V.74a.73.73 0 0 0-.74-.74h-2.94a.72.72 0 0 0-.73.74v15.43H31.5a2.15 2.15 0 0 0-2.2 2.21v2.94a.71.71 0 0 0 .73.73h.63L29.3 34.44a.8.8 0 0 0 .63.84h2.31a.69.69 0 0 0 .73-.63l1.37-12.6h4.51l1.37 12.6c0 .42.31.63.73.63h2.21a.83.83 0 0 0 .84-.84zm-12.39-.63h-.74l1.37-11.76H33zm10.18 0l-1.26-11.76h.74l1.26 11.76zm.74-13.23H30.77v-2.2a.72.72 0 0 1 .73-.74h8.82a.72.72 0 0 0 .74-.73V1.47h1.47z"/><path class="cls-3" d="M33 12.5V9.56a.72.72 0 0 0-.73-.74H11.66a.73.73 0 0 0-.74.74v2.94a.72.72 0 0 0 .74.73H19v21.32a.71.71 0 0 0 .73.73h4.41a.72.72 0 0 0 .74-.73V13.23h7.35a.71.71 0 0 0 .77-.73zm-9.58 21.31h-2.94V13.23h2.94zm8.08-22.05H12.39v-1.47H31.5z"/></svg>