<svg xmlns="http://www.w3.org/2000/svg" xmlns:xlink="http://www.w3.org/1999/xlink" version="1.1" id="Слой_1" x="0px" y="0px" width="52px" height="52px" viewBox="0 0 52 52" enable-background="new 0 0 52 52" xml:space="preserve">
    <path fill="#FF6866" d="M33.8,46.8h-2.6v-4.3c0-0.5-0.3-0.9-0.9-0.9s-0.9,0.3-0.9,0.9v5.2c0,0.5,0.3,0.9,0.9,0.9h3.5     c1,0,2,0.8,2.4,1.7H15.8c0.4-1,1.5-1.7,2.4-1.7h8.7c0.5,0,0.9-0.3,0.9-0.9c0-0.5-0.3-0.9-0.9-0.9h-4.3v-4.3     c0-0.5-0.3-0.9-0.9-0.9s-0.9,0.3-0.9,0.9v4.3h-2.6c-2.3,0-4.3,2.1-4.3,4.3c0,0.5,0.3,0.9,0.9,0.9h22.5c0.5,0,0.9-0.3,0.9-0.9     C38.1,48.9,36.1,46.8,33.8,46.8 M24.3,34.7c0,1,0.8,1.7,1.7,1.7s1.7-0.8,1.7-1.7c0-1-0.8-1.7-1.7-1.7S24.3,33.7,24.3,34.7      M52,4.3v31.2c0,2.4-1.9,4.3-4.3,4.3H4.3C1.9,39.9,0,38,0,35.5v-5.2c0-0.5,0.3-0.9,0.9-0.9h46.8c0.5,0,0.9,0.3,0.9,0.9     s-0.3,0.9-0.9,0.9H1.7v4.3c0,1.5,1.1,2.6,2.6,2.6h43.3c1.5,0,2.6-1.1,2.6-2.6V4.3c0-1.5-1.1-2.6-2.6-2.6H4.3     c-1.5,0-2.5,1.4-2.6,2.7v22.4c0,0.5-0.3,0.9-0.9,0.9S0,27.4,0,26.9V4.3C0.2,1.9,2.1,0,4.3,0h43.3C50.1,0,52,1.9,52,4.3"/>
    <path fill="#FF6866" d="M15.3,15.6l4.4,2.6c0,0,0,0,0,0.1v0.6c0,0,0,0.1,0,0.1c0,0,0,0-0.1,0l-5.1-3c0,0,0,0,0-0.1v-0.5    c0,0,0,0,0-0.1l5.1-3c0,0,0,0,0.1,0c0,0,0,0,0,0.1v0.6c0,0,0,0,0,0.1L15.3,15.6z"/>
    <path fill="#FF6866" d="M28.2,9.8c0,0,0.1,0.1,0,0.1l-3.8,11.6c0,0.1,0,0.1-0.1,0l-0.5-0.2c0,0-0.1-0.1,0-0.1l3.8-11.6    c0,0,0-0.1,0.1,0L28.2,9.8z"/>
    <path fill="#FF6866" d="M35.9,15.6L31.5,13c0,0,0,0,0-0.1v-0.6c0,0,0-0.1,0-0.1c0,0,0,0,0.1,0l5.1,3c0,0,0,0,0,0.1v0.5    c0,0,0,0.1,0,0.1l-5.1,3c0,0,0,0-0.1,0c0,0,0,0,0-0.1v-0.6c0,0,0,0,0-0.1L35.9,15.6z"/>
    <path fill="none" stroke="#FF6866" stroke-width="1.2" stroke-miterlimit="10" d="M15.3,15.6l4.4,2.6c0,0,0,0,0,0.1v0.6    c0,0,0,0.1,0,0.1c0,0,0,0-0.1,0l-5.1-3c0,0,0,0,0-0.1v-0.5c0,0,0,0,0-0.1l5.1-3c0,0,0,0,0.1,0c0,0,0,0,0,0.1v0.6c0,0,0,0,0,0.1    L15.3,15.6z"/>
    <path fill="none" stroke="#FF6866" stroke-width="1.2" stroke-miterlimit="10" d="M28.2,9.8c0,0,0.1,0.1,0,0.1l-3.8,11.6    c0,0.1,0,0.1-0.1,0l-0.5-0.2c0,0-0.1-0.1,0-0.1l3.8-11.6c0,0,0-0.1,0.1,0L28.2,9.8z"/>
    <path fill="none" stroke="#FF6866" stroke-width="1.2" stroke-miterlimit="10" d="M35.9,15.6L31.5,13c0,0,0,0,0-0.1v-0.6    c0,0,0-0.1,0-0.1c0,0,0,0,0.1,0l5.1,3c0,0,0,0,0,0.1v0.5c0,0,0,0.1,0,0.1l-5.1,3c0,0,0,0-0.1,0c0,0,0,0,0-0.1v-0.6c0,0,0,0,0-0.1    L35.9,15.6z"/>
</svg>