<svg data-name="Layer 1" xmlns="http://www.w3.org/2000/svg" viewBox="0 0 30 30"><path d="M15.06.11a14.95 14.95 0 1 1-14.95 15 14.94 14.94 0 0 1 14.95-15zm0 0" fill="#3f729b"/><path d="M20.21 6.65H9.9A3.25 3.25 0 0 0 6.65 9.9v10.31a3.25 3.25 0 0 0 3.25 3.25h10.31a3.24 3.24 0 0 0 3.25-3.25V9.9a3.25 3.25 0 0 0-3.25-3.25zm1 1.88h.37v2.79h-2.79V8.54zm-6.18 3.71a2.82 2.82 0 1 1-2.82 2.82 2.82 2.82 0 0 1 2.82-2.82zM21.62 20A1.61 1.61 0 0 1 20 21.62h-9.93A1.61 1.61 0 0 1 8.46 20v-6.82h2.33a5.59 5.59 0 0 0-.34 1.88 4.6 4.6 0 0 0 9.2 0 5.36 5.36 0 0 0-.34-1.88h2.31V20zm0 0" fill="#fff"/></svg>