<svg id="Layer_1" data-name="Layer 1" xmlns="http://www.w3.org/2000/svg" viewBox="0 0 44 44"><defs><style>.cls-1{fill:none}.cls-3{fill:#020203}</style></defs><path class="cls-1" d="M31.09 18.42h3.64v16.54h-3.64zM25.58 18.42h3.64v16.54h-3.64zM9.03 18.42h3.64v16.54H9.03zM20.06 18.42h3.64v16.54h-3.64zM27.46 9.27h1.88v1.88h-1.88z"/><circle class="cls-1" cx="21.94" cy="7.39" r=".94"/><path class="cls-1" d="M15.49 9.15l-1.18 1.88h2.35l-1.17-1.88zM14.55 18.42h3.64v16.54h-3.64z"/><circle class="cls-1" cx="41.18" cy="8.33" r=".94"/><path class="cls-1" d="M3.52 18.42h3.64v16.54H3.52zM36.61 18.42h3.64v16.54h-3.64z"/><circle class="cls-1" cx="2.7" cy="8.33" r=".94"/><path fill="#f4981b" d="M3.52 36.73h36.73v4.25H3.52z"/><path class="cls-3" d="M41.18 5.51a2.73 2.73 0 0 0-2.69 2.7 2.78 2.78 0 0 0 1.87 2.58v5.64H3.52v-5.64A2.78 2.78 0 0 0 5.4 8.21a2.73 2.73 0 0 0-2.7-2.7A2.73 2.73 0 0 0 0 8.21a2.78 2.78 0 0 0 1.88 2.58v32.27a.93.93 0 0 0 .94.94.86.86 0 0 0 .93-.94v-.94h36.5v.94a.94.94 0 1 0 1.87 0V10.79A2.78 2.78 0 0 0 44 8.21a2.84 2.84 0 0 0-2.82-2.7zM31.09 18.42h3.64V35h-3.64zm-5.51 0h3.64V35h-3.64zm-5.52 0h3.64V35h-3.64zm-5.51 0h3.64V35h-3.64zm-5.55 0h3.64V35H9zm-1.76 0V35H3.52V18.42zM2.7 9.27a1 1 0 0 1-.94-.94 1 1 0 0 1 .94-.94 1 1 0 0 1 .94.94 1 1 0 0 1-.94.94zm37.55 31.21H3.52v-3.64h36.73zm0-5.51h-3.64V18.42h3.64zm.93-25.7a1 1 0 0 1-.93-.94.94.94 0 1 1 1.87 0 1 1 0 0 1-.94.94z"/><path class="cls-3" d="M12.79 12.91h5.51a1.22 1.22 0 0 0 .83-.47 1.37 1.37 0 0 0 0-.94l-2.59-4.34A5.42 5.42 0 0 1 21.12 2v2.81a2.79 2.79 0 0 0-1.88 2.58 2.7 2.7 0 1 0 5.4 0 2.79 2.79 0 0 0-1.88-2.58V2a5.54 5.54 0 0 1 4.58 5.4h-.94a.93.93 0 0 0-.94.94V12a.93.93 0 0 0 .94.94H30a.93.93 0 0 0 1-.94V8.33a.93.93 0 0 0-1-.94h-.9A7.37 7.37 0 0 0 21.71 0a7.27 7.27 0 0 0-7.28 7l-2.7 4.46a1.37 1.37 0 0 0 0 .94 2.2 2.2 0 0 0 1.06.51zM29.22 11h-1.88V9.15h1.88zm-7.28-4.55a1 1 0 0 1 .94.94.94.94 0 1 1-1.88 0 .93.93 0 0 1 .94-.94zm-6.45 2.7L16.66 11h-2.23z"/></svg>