<svg id="Layer_1" data-name="Layer 1" xmlns="http://www.w3.org/2000/svg" viewBox="0 0 44 44"><defs><style>.cls-1{fill:#f4981b}.cls-2{fill:#020203}</style></defs><path class="cls-1" d="M30.93 18.42h3.62v16.54h-3.62zM25.44 18.42h3.62v16.54h-3.62zM8.99 18.42h3.62v16.54H8.99zM19.96 18.42h3.62v16.54h-3.62zM27.19 9.27h1.87v1.88h-1.87z"/><ellipse class="cls-1" cx="21.82" cy="7.39" rx=".93" ry=".94"/><path class="cls-1" d="M15.41 9.15l-1.17 1.88h2.22l-1.05-1.88zM14.47 18.42h3.62v16.54h-3.62z"/><ellipse class="cls-1" cx="40.97" cy="8.33" rx=".93" ry=".94"/><path class="cls-1" d="M3.5 18.42h3.62v16.54H3.5zM36.41 18.42h3.62v16.54h-3.62z"/><ellipse class="cls-1" cx="2.57" cy="8.33" rx=".93" ry=".94"/><path class="cls-1" d="M3.5 36.73h36.53v4.25H3.5z"/><path class="cls-2" d="M41 5.51a2.73 2.73 0 0 0-2.69 2.7 2.78 2.78 0 0 0 1.87 2.58v5.64H3.5v-5.64a2.78 2.78 0 0 0 1.87-2.58 2.73 2.73 0 0 0-2.69-2.7A2.73 2.73 0 0 0 0 8.21a2.78 2.78 0 0 0 1.87 2.58v32.27a.92.92 0 0 0 .93.94.86.86 0 0 0 .93-.94v-.94h36.54v.94a.93.93 0 1 0 1.86 0V10.79A2.78 2.78 0 0 0 44 8.21a3.36 3.36 0 0 0-3-2.7zM31 18.42h3.62V35h-3.69zm-5.49 0h3.62V35h-3.69zm-5.48 0h3.62V35H20zm-5.49 0h3.62V35h-3.69zm-5.54 0h3.6V35H9zm-1.87 0V35H3.5V18.42zM2.57 9.27a1 1 0 0 1-.94-.94 1 1 0 0 1 .94-.94 1 1 0 0 1 .93.94.92.92 0 0 1-.93.94zM40 40.48H3.5v-3.64H40zM40 35h-3.59V18.42H40zm1-25.73a1 1 0 0 1-1-.94.94.94 0 1 1 1.87 0 1 1 0 0 1-.87.94z"/><path class="cls-2" d="M12.6 12.91h5.49a1.22 1.22 0 0 0 .82-.47 1.37 1.37 0 0 0 0-.94l-2.57-4.34A5.4 5.4 0 0 1 20.89 2v2.81A2.79 2.79 0 0 0 19 7.39a2.69 2.69 0 1 0 5.37 0 2.78 2.78 0 0 0-1.86-2.58V2a5.53 5.53 0 0 1 4.55 5.4h-.94a.92.92 0 0 0-.93.94V12a.92.92 0 0 0 .93.94H30a.93.93 0 0 0 .94-.94V8.33a.93.93 0 0 0-.94-.94h-.93A7.35 7.35 0 0 0 21.71 0a7.25 7.25 0 0 0-7.24 7l-2.68 4.5a1.26 1.26 0 0 0 0 .94 1.18 1.18 0 0 0 .81.47zM29.06 11h-1.87V9.15h1.87zm-7.24-4.55a1 1 0 0 1 .94.94.94.94 0 1 1-1.87 0 .92.92 0 0 1 .93-.94zm-6.41 2.7L16.57 11h-2.21z"/></svg>