<svg id="Layer_1" data-name="Layer 1" xmlns="http://www.w3.org/2000/svg" viewBox="0 0 54.34 30"><defs><style>.cls-1{fill:#fff}.cls-2{fill:#f7981d}.cls-3{fill:#e52836}</style></defs><rect class="cls-1" x=".06" y="-.05" width="54.34" height="30.1" rx="1.7" ry="1.7"/><path class="cls-2" d="M43 15a9.46 9.46 0 0 1-18.91 0A9.46 9.46 0 1 1 43 15z"/><path class="cls-2" d="M33.54 5.54A9.48 9.48 0 0 1 43 15a9.46 9.46 0 0 1-18.91 0"/><path class="cls-3" d="M20.83 5.54a9.46 9.46 0 0 0 .1 18.91A9.59 9.59 0 0 0 27.29 22a9 9 0 0 0 .95-1h-1.95a11.53 11.53 0 0 1-.7-.95h3.35a6.41 6.41 0 0 0 .55-1H25a6 6 0 0 1-.4-1h5.21a9.93 9.93 0 0 0 .5-3 12.91 12.91 0 0 0-.2-2h-5.78a7.31 7.31 0 0 1 .25-1h5.21a6 6 0 0 0-.4-1H25a8.37 8.37 0 0 1 .56-1h3.35a4.81 4.81 0 0 0-.75-1h-1.87a8.52 8.52 0 0 1 .95-.95 9.25 9.25 0 0 0-6.36-2.45c0-.11 0-.11-.05-.11z"/><path class="cls-3" d="M11.48 15a9.44 9.44 0 0 0 9.45 9.45A9.59 9.59 0 0 0 27.29 22a9 9 0 0 0 .95-1h-1.95a11.53 11.53 0 0 1-.7-.95h3.35a6.41 6.41 0 0 0 .55-1H25a6 6 0 0 1-.4-1h5.21a9.93 9.93 0 0 0 .5-3 12.91 12.91 0 0 0-.2-2h-5.78a7.31 7.31 0 0 1 .25-1h5.21a6 6 0 0 0-.4-1H25a8.37 8.37 0 0 1 .56-1h3.35a4.81 4.81 0 0 0-.75-1h-1.87a8.52 8.52 0 0 1 .95-.95 9.25 9.25 0 0 0-6.36-2.45h-.05"/><path class="cls-1" d="M24.28 17.4l.15-.85a2.17 2.17 0 0 1-.25.05c-.35 0-.4-.2-.35-.3l.3-1.75h.55l.15-1h-.5l.1-.6h-1s-.6 3.3-.6 3.7a.75.75 0 0 0 .8.85 1.53 1.53 0 0 0 .65-.1zM24.63 15.8a1.6 1.6 0 0 0 1.76 1.75 2.6 2.6 0 0 0 1.05-.15l.2-.95a3 3 0 0 1-1.05.25c-1.11 0-.9-.8-.9-.8h2a6.48 6.48 0 0 0 .15-.9 1.35 1.35 0 0 0-1.45-1.45c-1.01-.1-1.76 1-1.76 2.25zm1.76-1.45c.55 0 .45.65.45.7h-1.1c0-.05.1-.7.65-.7zM32.74 17.4l.2-1.1a2.46 2.46 0 0 1-.85.25c-.7 0-1-.55-1-1.15 0-1.2.6-1.85 1.3-1.85a1.67 1.67 0 0 1 .9.3l.15-1a3.52 3.52 0 0 0-1.15-.25c-1.15 0-2.3 1-2.3 2.9 0 1.25.6 2.1 1.8 2.1a4.49 4.49 0 0 0 .95-.2zM18.78 13.45a3.54 3.54 0 0 0-1.2.2l-.15.85a3 3 0 0 1 1.1-.2c.35 0 .65 0 .65.35s-.05.25-.05.25h-.45c-.85 0-1.8.35-1.8 1.5 0 .9.6 1.1.95 1.1a1.5 1.5 0 0 0 1.05-.45l-.05.4h.9l.4-2.75a1.19 1.19 0 0 0-1.35-1.25zM19 15.7c0 .15-.1.95-.7.95a.39.39 0 0 1-.4-.4c0-.25.15-.6.9-.6a.79.79 0 0 0 .2.05zM21.08 17.5a1.28 1.28 0 0 0 1.5-1.3c0-1.25-1.2-1-1.2-1.5 0-.25.2-.35.55-.35.15 0 .7.05.7.05l.15-.9a3.8 3.8 0 0 0-1-.1c-.75 0-1.5.3-1.5 1.3 0 1.15 1.25 1.05 1.25 1.5s-.35.35-.6.35a3.27 3.27 0 0 1-.9-.15l-.15.9c.12.1.35.2 1.2.2zM41 12.65L40.84 14a1.39 1.39 0 0 0-1-.5c-.9 0-1.7 1.1-1.7 2.4 0 .8.4 1.65 1.25 1.65a1.33 1.33 0 0 0 1-.4v.35h1l.75-4.8zm-.45 2.65c0 .55-.25 1.25-.8 1.25-.35 0-.55-.3-.55-.8 0-.8.35-1.3.8-1.3s.59.25.59.85zM13.33 17.45l.6-3.6.1 3.6h.7l1.3-3.6-.55 3.6h1.05l.8-4.8h-1.65l-1 2.95v-2.95h-1.5l-.8 4.8zM28.84 17.45c.3-1.65.35-3 1.05-2.75a3.92 3.92 0 0 1 .35-1.15H30c-.45 0-.8.6-.8.6l.1-.55h-.95l-.65 3.9h1.1zM35 13.45a3.54 3.54 0 0 0-1.2.2l-.15.85a3 3 0 0 1 1.1-.2c.35 0 .65 0 .65.35v.25h-.45c-.85 0-1.8.35-1.8 1.5 0 .9.6 1.1 1 1.1a1.5 1.5 0 0 0 1-.45v.4H36l.4-2.75a1.17 1.17 0 0 0-1.4-1.25zm.25 2.25c0 .15-.1.95-.7.95a.39.39 0 0 1-.4-.4c0-.25.15-.6.9-.6.19.05.19.05.24.05zM37.24 17.45c.3-1.65.35-3 1-2.75a3.92 3.92 0 0 1 .35-1.15h-.2c-.45 0-.8.6-.8.6l.1-.55h-1l-.65 3.9h1.1z"/></svg>