<svg id="Layer_1" data-name="Layer 1" xmlns="http://www.w3.org/2000/svg" viewBox="0 0 31.37 44"><defs><style>.cls-1{fill:#020203}</style></defs><path class="cls-1" d="M8.17 31.91a.84.84 0 0 0 .43.22.57.57 0 0 0 .4-.22l.44-.43.43.43a.83.83 0 0 0 .44.22.57.57 0 0 0 .43-.22.66.66 0 0 0 0-.87l-.43-.44.43-.43a.62.62 0 1 0-.87-.87l-.43.43L9 29.3a.62.62 0 1 0-.87.87l.43.43-.39.4c-.33.26-.33.58 0 .91z"/><path fill="#f4981b" d="M.76 38.66h30.17v4.57H.76z"/><path class="cls-1" d="M29.19 0h-11a2.11 2.11 0 0 0-1.42.54c-.11.11-.22.11-.22 0A2.59 2.59 0 0 0 15.14 0H2.29A2.3 2.3 0 0 0 0 2.29v5.12a.71.71 0 0 0 .65.65.71.71 0 0 0 .66-.65V2.29a1 1 0 0 1 1-1H15a1.6 1.6 0 0 1 .65.21 1.46 1.46 0 0 0 1.85 0 1.69 1.69 0 0 1 .66-.21h11a1 1 0 0 1 1 1V38a3.22 3.22 0 0 0-1-.22h-6a.66.66 0 1 0 0 1.31h6a1 1 0 0 1 1 1v1.63a1 1 0 0 1-1 1h-11a1.69 1.69 0 0 1-.66-.21 1.46 1.46 0 0 0-1.85 0 1.6 1.6 0 0 1-.65.21H2.29a1 1 0 0 1-1-1v-1.64a1 1 0 0 1 1-1H15a1.48 1.48 0 0 1 .65.22 1.49 1.49 0 0 0 1.85 0 1.56 1.56 0 0 1 .66-.22h2.5a.66.66 0 1 0 0-1.31h-2.5a2.07 2.07 0 0 0-1.42.55c-.11.11-.22.11-.22 0a2.53 2.53 0 0 0-1.41-.55H2.29a2.53 2.53 0 0 0-1 .22V9.91a.7.7 0 0 0-.66-.65.7.7 0 0 0-.63.65v31.8A2.3 2.3 0 0 0 2.29 44H15a2.13 2.13 0 0 0 1.42-.54c.1-.11.21-.11.21 0a2.62 2.62 0 0 0 1.42.54h11a2.3 2.3 0 0 0 2.29-2.29V2.29A2.09 2.09 0 0 0 29.19 0z"/><path class="cls-1" d="M8.17 21.13a.84.84 0 0 0 .43.22.57.57 0 0 0 .4-.22l.44-.44.43.44a.83.83 0 0 0 .44.22.81.81 0 0 0 .43-.22.66.66 0 0 0 0-.87l-.43-.44.43-.43a.67.67 0 0 0 0-.88.68.68 0 0 0-.87 0l-.39.49-.48-.49a.68.68 0 0 0-.87 0 .67.67 0 0 0 0 .88l.43.43-.43.44a.51.51 0 0 0 .04.87zM20.58 31.91a.83.83 0 0 0 .44.22.83.83 0 0 0 .44-.22l.43-.43.44.43a.81.81 0 0 0 .43.22.57.57 0 0 0 .44-.22.66.66 0 0 0 0-.87l-.44-.44.44-.43a.62.62 0 1 0-.87-.87l-.44.43-.43-.43a.67.67 0 0 0-.88 0 .68.68 0 0 0 0 .87l.44.43-.44.44a.68.68 0 0 0 0 .87zM20.58 21.13a.83.83 0 0 0 .44.22.83.83 0 0 0 .44-.22l.43-.44.44.44a.81.81 0 0 0 .43.22.57.57 0 0 0 .44-.22.66.66 0 0 0 0-.87l-.44-.44.44-.43a.67.67 0 0 0 0-.88.68.68 0 0 0-.87 0l-.44.44-.43-.44a.62.62 0 0 0-.88.88l.44.43-.44.44a.68.68 0 0 0 0 .87zM20.58 10.46a.89.89 0 0 0 .44.21.89.89 0 0 0 .44-.21l.43-.44.44.44a.86.86 0 0 0 .43.21.6.6 0 0 0 .44-.21.67.67 0 0 0 0-.88l-.44-.43.44-.44a.62.62 0 1 0-.87-.87l-.44.44-.43-.44a.67.67 0 0 0-.88 0 .68.68 0 0 0 0 .87l.44.44-.44.43a.69.69 0 0 0 0 .88zM8.17 10.46a.9.9 0 0 0 .43.21.6.6 0 0 0 .4-.21l.48-.46.43.44a.89.89 0 0 0 .44.21.59.59 0 0 0 .43-.21.67.67 0 0 0 0-.88l-.43-.43.43-.44a.62.62 0 0 0-.87-.87l-.43.44L9 7.84a.62.62 0 0 0-.87.87l.43.44-.43.43a.51.51 0 0 0 .04.88z"/></svg>