<svg id="Layer_1" data-name="Layer 1" xmlns="http://www.w3.org/2000/svg" viewBox="0 0 31.39 44"><defs><style>.cls-2{fill:#020203}</style></defs><path fill="#f4981b" d="M30.93 43.26H.76V.57h29.63l.54 42.69z"/><path class="cls-2" d="M8.17 31.94a.9.9 0 0 0 .43.21.6.6 0 0 0 .4-.21l.44-.44.43.44a.89.89 0 0 0 .44.21.59.59 0 0 0 .43-.21.67.67 0 0 0 0-.88l-.43-.43.43-.44a.62.62 0 0 0-.87-.87l-.43.44-.44-.44a.62.62 0 0 0-.87.87l.43.44-.43.43a.67.67 0 0 0 .04.88z"/><path class="cls-2" d="M29.19 0h-11a2.07 2.07 0 0 0-1.42.55c-.11.11-.22.11-.22 0A2.53 2.53 0 0 0 15.14 0H2.29A2.3 2.3 0 0 0 0 2.31v5.12a.7.7 0 0 0 .65.65.7.7 0 0 0 .66-.65V2.31a1 1 0 0 1 1-1H15a1.48 1.48 0 0 1 .65.22 1.46 1.46 0 0 0 1.85 0 1.56 1.56 0 0 1 .66-.22h11a1 1 0 0 1 1 1V38a3.52 3.52 0 0 0-1-.21h-6a.65.65 0 1 0 0 1.3h6a1 1 0 0 1 1 1v1.64a1 1 0 0 1-1 1h-11a1.56 1.56 0 0 1-.66-.22 1.46 1.46 0 0 0-1.85 0 1.48 1.48 0 0 1-.65.22H2.29a1 1 0 0 1-1-1V40.1a1 1 0 0 1 1-1H15a1.48 1.48 0 0 1 .65.22 1.46 1.46 0 0 0 1.85 0 1.56 1.56 0 0 1 .66-.22h2.5a.65.65 0 1 0 0-1.3h-2.5a2.06 2.06 0 0 0-1.42.54c-.11.11-.22.11-.22 0a2.52 2.52 0 0 0-1.41-.54H2.29a2.73 2.73 0 0 0-1 .21V9.94a.71.71 0 0 0-.66-.66.71.71 0 0 0-.63.66v31.8A2.3 2.3 0 0 0 2.29 44H15a2.08 2.08 0 0 0 1.42-.54c.1-.11.21-.11.21 0a2.54 2.54 0 0 0 1.42.54h11a2.29 2.29 0 0 0 2.29-2.28V2.31A2 2 0 0 0 29.19 0z"/><path class="cls-2" d="M8.17 21.15a.84.84 0 0 0 .43.22.57.57 0 0 0 .4-.22l.44-.43.43.43a.83.83 0 0 0 .44.22.81.81 0 0 0 .43-.22.66.66 0 0 0 0-.87l-.43-.43.43-.44a.62.62 0 0 0-.87-.87l-.39.46-.48-.46a.62.62 0 0 0-.87.87l.43.44-.43.43a.66.66 0 0 0 .04.87zM20.69 31.94a.89.89 0 0 0 .44.21.83.83 0 0 0 .43-.21l.44-.44.44.44a.83.83 0 0 0 .43.21.6.6 0 0 0 .44-.21.69.69 0 0 0 0-.88l-.44-.43.44-.44a.68.68 0 0 0 0-.87.66.66 0 0 0-.87 0l-.44.44-.44-.44a.66.66 0 0 0-.87 0 .68.68 0 0 0 0 .87l.44.44-.44.43c-.32.22-.32.55 0 .88zM20.69 21.15a.83.83 0 0 0 .44.22.78.78 0 0 0 .43-.22l.44-.43.44.43a.78.78 0 0 0 .43.22.57.57 0 0 0 .44-.22.68.68 0 0 0 0-.87l-.44-.43.44-.44a.68.68 0 0 0 0-.87.66.66 0 0 0-.87 0L22 19l-.44-.44a.66.66 0 0 0-.87 0 .68.68 0 0 0 0 .87l.44.44-.44.43a.51.51 0 0 0 0 .85zM20.69 10.48a.83.83 0 0 0 .44.22.78.78 0 0 0 .43-.22L22 10l.44.44a.78.78 0 0 0 .43.22.57.57 0 0 0 .44-.22.68.68 0 0 0 0-.87l-.44-.44.44-.43a.68.68 0 0 0 0-.87.66.66 0 0 0-.87 0L22 8.3l-.44-.43a.66.66 0 0 0-.87 0 .68.68 0 0 0 0 .87l.44.43-.44.44a.51.51 0 0 0 0 .87zM8.17 10.48a.84.84 0 0 0 .43.22.57.57 0 0 0 .4-.22l.48-.48.43.44a.83.83 0 0 0 .44.22.57.57 0 0 0 .43-.22.66.66 0 0 0 0-.87l-.43-.44.43-.43a.62.62 0 0 0-.87-.87l-.43.43L9 7.87a.62.62 0 0 0-.87.87l.43.43-.43.44a.66.66 0 0 0 .04.87z"/></svg>