<svg id="Layer_1" data-name="Layer 1" xmlns="http://www.w3.org/2000/svg" viewBox="0 0 38.2 40.17"><defs><style>.cls-1{fill:#f4981b}.cls-2{fill:#020203}</style></defs><path class="cls-1" d="M32.72 35.69l-4.09 3.39H11.67V4.27h23.64l1 .9 1 1.09V30.6l-4.59 5.09z"/><path class="cls-1" d="M10.07 34.99h4.99v3.29h-4.99zM13.37 9.16V33.4h1.69V8.06c-.1.1-.2.1-.2.2a4 4 0 0 1-1.49.9zM11.67 9.16a4.19 4.19 0 0 1-1.4-.9l-.2-.2V33.4h1.7l-.1-24.24z"/><path class="cls-1" d="M1.1 1.28h10.77v37.71H1.1zM29.93 34.19v3l5.48-5.49h-3a2.47 2.47 0 0 0-2.48 2.49z"/><path class="cls-1" d="M12.57 7.66c.5 0 .7-.2 1.1-.6.2-.2.49-.4.69-.6l-1.09-2.09h-1.5l-1.1 2.09a4.35 4.35 0 0 1 .7.6c.5.4.7.6 1.2.6z"/><path class="cls-2" d="M19.15 27.61h8.28a.79.79 0 0 0 .8-.8v-8.28a.78.78 0 0 0-.8-.79h-.8V26h-7.48zM19.15 20.13v1.7a5.79 5.79 0 1 0 0-11.58V12a4.21 4.21 0 0 1 4.19 4.19 4 4 0 0 1-4.19 3.94z"/><path class="cls-2" d="M34.11 3.47H18.35v1.7h15.76a2.47 2.47 0 0 1 2.5 2.49V30h-4.19a4.21 4.21 0 0 0-4.19 4.19v4.19h-9.08v1.7h10a1.42 1.42 0 0 0 .6-.2L38 31.6a.76.76 0 0 0 .19-.6V7.66a4.13 4.13 0 0 0-4.08-4.19zm-4.18 33.72v-3a2.47 2.47 0 0 1 2.49-2.49h3zM1.8 6h2.49V4.27H1.8V1.78h6.58V.08H1.7A1.69 1.69 0 0 0 0 1.78v36.5A1.69 1.69 0 0 0 1.7 40h4.19v-1.7H1.7v-2.51h2.49v-1.6H1.7V30.9h4.19v-1.69H1.7v-3.29h2.49v-1.7H1.7v-3.29h4.19v-1.7H1.7v-3.29h2.49v-1.7H1.7V11h4.19V9.26H1.7V6zM13.27.68L13 .38a1 1 0 0 0-1.2.3L8.48 7.26a.6.6 0 0 0-.1.4v31.52a.79.79 0 0 0 .8.8h6.68a.79.79 0 0 0 .8-.8V7.66a.6.6 0 0 0-.1-.4zm-1.5 3.69h1.5l1.09 2.09a4.24 4.24 0 0 0-.69.6c-.4.4-.6.6-1.1.6s-.7-.2-1.1-.6c-.2-.2-.5-.4-.7-.6zm-1.7 3.69c.1.1.2.1.2.2a2.43 2.43 0 0 0 1.4.9V33.4H10l.09-25.34zm5 30.32h-5v-3.29h5zm0-5h-1.7V9.16a4.15 4.15 0 0 0 1.39-.9l.2-.2.1 25.34z"/></svg>