<svg id="Layer_1" data-name="Layer 1" xmlns="http://www.w3.org/2000/svg" viewBox="0 0 38.1 40"><defs><style>.cls-1{fill:#f4981b}.cls-3{fill:#020203}</style></defs><path class="cls-1" d="M9.98 34.91h4.99v3.29H9.98zM13.27 8.6v24.62H15V7.48c-.1.1-.2.1-.2.2a2.38 2.38 0 0 1-1.53.92zM11.54 8.34a5.73 5.73 0 0 1-1.81-.92l-.25-.2v26h2.19V8.34z"/><path d="M29.83 34v3l5.48-5.49h-3A2.6 2.6 0 0 0 29.83 34z" fill="none"/><path class="cls-1" d="M12.47 7.48c.5 0 .7-.2 1.1-.6.2-.2.49-.4.69-.6l-1.09-2.09h-1.5l-1.1 2.09a4.35 4.35 0 0 1 .7.6c.5.4.73.6 1.2.6z"/><path class="cls-3" d="M19.05 27.43h8.28a.79.79 0 0 0 .8-.8v-8.28a.79.79 0 0 0-.8-.79h-.8v8.28h-7.48zM19.05 20v1.7a5.79 5.79 0 0 0 0-11.58v1.7A4.21 4.21 0 0 1 23.24 16a4 4 0 0 1-4.19 4z"/><path class="cls-3" d="M34 3.39H18.25v1.7H34a2.47 2.47 0 0 1 2.5 2.49v22.35h-4.18a4.21 4.21 0 0 0-4.19 4.18v4.19h-9.08V40H29a1.42 1.42 0 0 0 .6-.2l8.28-8.28a.76.76 0 0 0 .19-.6V7.48A4 4 0 0 0 34 3.39zM29.83 37v-3a2.47 2.47 0 0 1 2.49-2.49h3zM1.7 5.89h2.49v-1.7H1.7V1.7h6.68V0H1.7A1.69 1.69 0 0 0 0 1.7v36.5a1.69 1.69 0 0 0 1.7 1.7h4.09v-1.7H1.7v-2.49h2.49V34H1.7v-3.28h4.09V29H1.7v-3.26h2.49v-1.6H1.7v-3.29h4.09v-1.7H1.7v-3.29h2.49v-1.7H1.7v-3.29h4.09V9.18H1.7zM13.17.5l-.3-.3a1 1 0 0 0-1.2.3L8.38 7.18c-.1.1-.1.2-.1.4V39.1a.79.79 0 0 0 .8.8h6.68a.79.79 0 0 0 .8-.8V7.48a.6.6 0 0 0-.1-.4zm-1.5 3.69h1.5l1.09 2.09a4.72 4.72 0 0 0-.69.6c-.4.4-.6.6-1.1.6s-.7-.2-1.1-.6c-.2-.2-.5-.4-.7-.6zM10 7.88c.09.1.19.1.19.2a2.43 2.43 0 0 0 1.4.9v24.24H9.88V7.88zm5 30.32h-5v-3.29h5zm0-5h-1.73V9a4.15 4.15 0 0 0 1.39-.9l.2-.2v25.32z"/></svg>