<svg id="Layer_1" data-name="Layer 1" xmlns="http://www.w3.org/2000/svg" viewBox="0 0 28.13 44"><defs><style>.cls-1{fill:none}.cls-2{fill:#f4981b}</style></defs><path class="cls-1" d="M20.47 2.27a.73.73 0 0 0-.74-.74H8.08a.72.72 0 0 0-.73.74v16.79h13.12z"/><circle class="cls-2" cx="13.96" cy="41.62" r=".73"/><circle class="cls-2" cx="22.67" cy="41.62" r=".73"/><path class="cls-1" d="M11.75 20.53h4.41v.73h-4.41zM1.57 14.65h1.47v1.47H1.57z"/><circle class="cls-2" cx="5.14" cy="41.62" r=".73"/><path class="cls-2" d="M5.88 22.63h16.06v2.94H5.88z"/><path class="cls-1" d="M24.87 14.65h1.47v1.47h-1.47zM13.22 29.97h1.47v4.41h-1.47zM11.75 27.04h4.41v1.47h-4.41z"/><path d="M27.08 13.18h-2.94a.73.73 0 0 0-.74.74v2.93a.73.73 0 0 0 .74.74h.73v5.88H23.4V22a.72.72 0 0 0-.73-.74h-5.14v-.73h3.67a.72.72 0 0 0 .73-.74V2.27a2.15 2.15 0 0 0-2.2-2.21H8.08a2.15 2.15 0 0 0-2.2 2.21v17.52a.72.72 0 0 0 .73.74h3.68v.73H5.14a.72.72 0 0 0-.73.74v1.47H2.94v-5.88h.73a.73.73 0 0 0 .74-.74v-2.93a.73.73 0 0 0-.74-.74H.73a.72.72 0 0 0-.73.74v2.93a.72.72 0 0 0 .73.74h.74v6.61a.72.72 0 0 0 .73.74h2.21v1.47a.71.71 0 0 0 .73.73h5.15v2.2a.72.72 0 0 0 .73.74h.73v5.14a.73.73 0 0 0 .74.74h.73v1.47h-8a.72.72 0 0 0-.74.73v1.57a2.23 2.23 0 1 0 1.47 0v-.84h7.35v.84a2.22 2.22 0 1 0 2.83 1.37 2.2 2.2 0 0 0-1.36-1.37v-.84h7.34v.84a2.23 2.23 0 1 0 1.47 0v-1.57a.71.71 0 0 0-.73-.73h-8V36h.74a.72.72 0 0 0 .73-.74v-5.18h.74a.72.72 0 0 0 .73-.74v-2.2H23a.72.72 0 0 0 .74-.73v-1.47h2.2a.73.73 0 0 0 .74-.74v-6.61h.73a.72.72 0 0 0 .74-.73v-2.94c-.34-.42-.65-.74-1.07-.74zM1.57 16.12v-1.47H3v1.47zm3.57 26.24a.72.72 0 0 1-.73-.74.71.71 0 0 1 .73-.73.72.72 0 0 1 .74.73.73.73 0 0 1-.74.74zm17.53-1.47a.71.71 0 0 1 .73.73.72.72 0 0 1-.73.74.73.73 0 0 1-.74-.74.78.78 0 0 1 .74-.73zM7.35 19.06V2.27a.72.72 0 0 1 .73-.74h11.65a.73.73 0 0 1 .74.74v16.79zm8.81 1.47v.73h-4.41v-.73zM14 42.36a.73.73 0 0 1-.74-.74.72.72 0 0 1 .74-.73.71.71 0 0 1 .73.73.72.72 0 0 1-.73.74zm.73-8h-1.51V30h1.47zm1.47-5.88h-4.45V27h4.41zm5.77-2.93h-16v-2.92h15.96zm4.41-9.45h-1.51v-1.45h1.47z" fill="#020203"/></svg>