<svg id="Layer_1" data-name="Layer 1" xmlns="http://www.w3.org/2000/svg" viewBox="0 0 27.81 44"><defs><style>.cls-1{fill:#f4981b}</style></defs><path class="cls-1" d="M20.47 2.2a.72.72 0 0 0-.74-.73H8.08a.71.71 0 0 0-.73.73V19h13.12z"/><circle class="cls-1" cx="13.85" cy="41.56" r=".73"/><circle class="cls-1" cx="22.67" cy="41.56" r=".73"/><path class="cls-1" d="M11.75 20.47h4.41v.73h-4.41zM1.47 14.59h1.47v1.47H1.47z"/><circle class="cls-1" cx="5.14" cy="41.56" r=".73"/><path class="cls-1" d="M5.88 22.56h16.06v2.94H5.88zM24.87 14.59h1.47v1.47h-1.47zM13.22 29.91h1.47v4.41h-1.47zM11.75 26.97h4.41v1.47h-4.41z"/><path d="M27.08 13.12h-2.94a.72.72 0 0 0-.74.73v2.94a.73.73 0 0 0 .74.74h.73v5.87H23.4v-1.47a.71.71 0 0 0-.73-.73h-5.14v-.73h3.67a.72.72 0 0 0 .73-.74V2.2a2.14 2.14 0 0 0-2.2-2.2H8.08a2.14 2.14 0 0 0-2.2 2.2v17.53a.72.72 0 0 0 .73.74h3.68v.73H5.14a.71.71 0 0 0-.73.73v1.47H2.94v-5.87h.73a.73.73 0 0 0 .74-.74v-2.94a.72.72 0 0 0-.74-.73H.73a.71.71 0 0 0-.73.73v2.94a.72.72 0 0 0 .73.74h.74v6.61a.71.71 0 0 0 .73.73h2.21v1.47a.72.72 0 0 0 .73.74h5.15v2.2A.72.72 0 0 0 11 30h.73v5.14a.72.72 0 0 0 .74.73h.73v1.47h-8a.73.73 0 0 0-.74.74v1.57a2.23 2.23 0 1 0 1.47 0v-.84h7.35v.84A2.22 2.22 0 1 0 16.16 41a2.2 2.2 0 0 0-1.36-1.37v-.84h7.34v.84a2.23 2.23 0 1 0 1.47 0V38.1a.72.72 0 0 0-.73-.74h-8v-1.47h.74a.71.71 0 0 0 .73-.73V30h.74a.72.72 0 0 0 .73-.74v-2.2H23a.73.73 0 0 0 .74-.74v-1.45h2.2a.72.72 0 0 0 .74-.73v-6.61h.42a.72.72 0 0 0 .73-.74v-2.94a.78.78 0 0 0-.75-.73zM1.47 16.06v-1.47h1.47v1.47zM5.14 42.3a.72.72 0 0 1-.73-.74.71.71 0 0 1 .73-.73.72.72 0 0 1 .74.73.73.73 0 0 1-.74.74zm17.53-1.47a.71.71 0 0 1 .73.73.72.72 0 0 1-.73.74.73.73 0 0 1-.74-.74.72.72 0 0 1 .74-.73zM7.35 19V2.2a.71.71 0 0 1 .73-.73h11.65a.72.72 0 0 1 .74.73V19zm8.71 1.47v.73h-4.41v-.73zM13.85 42.3a.72.72 0 0 1-.73-.74.71.71 0 0 1 .73-.73.72.72 0 0 1 .74.73.73.73 0 0 1-.74.74zm.74-8h-1.47v-4.39h1.47zm1.47-5.88h-4.41V27h4.41zm5.87-2.94h-16v-2.92h16zm4.41-9.44h-1.47v-1.45h1.47z" fill="#020203"/></svg>