<svg id="Layer_1" data-name="Layer 1" xmlns="http://www.w3.org/2000/svg" viewBox="0 0 31.62 38"><defs><style>.cls-1{fill:#666}</style></defs><path class="cls-1" d="M31.61 16.5v-11a.69.69 0 0 0-.47-.66L16.25 0a.66.66 0 0 0-.44 0 .77.77 0 0 0-.45 0L.48 4.87a.69.69 0 0 0-.48.66v11c0 .16-.42 16.08 15.45 21.33a.78.78 0 0 0 .22 0H16a.78.78 0 0 0 .21 0C32 32.56 31.62 16.64 31.61 16.5zm-15.77 20h-.06C1 31.52 1.36 17.14 1.38 16.5V6l14.41-4.66L30.24 6v10.5c0 .18.39 15.01-14.4 19.97z"/><path class="cls-1" d="M27.31 7.48L16.14 3.73a.7.7 0 0 0-.29 0 .75.75 0 0 0-.29 0L4.39 7.48a.69.69 0 0 0-.46.66v8.55c0 .12.56 12.36 11.67 16.67a.73.73 0 0 0 .25 0 .69.69 0 0 0 .25 0c11.12-4.31 11.68-16.55 11.68-16.69V8.14a.7.7 0 0 0-.47-.66zM15.85 32C5.84 27.91 5.31 16.76 5.3 16.67v-8l10.55-3.59 10.56 3.55v8c-.01.13-.54 11.28-10.56 15.37z"/><path class="cls-1" d="M22.77 13.92l-8 9.55-5.15-5.4a.69.69 0 1 0-1 .95l5.67 6a.67.67 0 0 0 .5.21.67.67 0 0 0 .51-.24l8.47-10.14a.69.69 0 0 0-.09-1 .68.68 0 0 0-.91.07z"/></svg>