<svg data-name="Layer 1" xmlns="http://www.w3.org/2000/svg" viewBox="0 0 23.72 34"><path d="M23.67 33v-1.14a8.07 8.07 0 0 0-2.07-6 6.08 6.08 0 0 0-4-1.73h-2.79v-1.64a.28.28 0 0 0 0-.09 7.79 7.79 0 0 0 3.59-3c.11-.18.22-.36.32-.54a3.39 3.39 0 0 0 2.67-5.2 5.65 5.65 0 0 0 0-1.16 1.43 1.43 0 0 0-.55-1 1.82 1.82 0 0 0-.74-.33V5.66a3.68 3.68 0 0 0-2.3-3.72.78.78 0 0 1-.4-1.06.56.56 0 0 0-.22-.66.54.54 0 0 0-.69.07c-.88.89-1.81.87-3.5.83a24.93 24.93 0 0 0-4.56.21A5.17 5.17 0 0 0 4.1 4.64a7 7 0 0 0-.48 2.7V11a.88.88 0 0 0 0 .17 2 2 0 0 0-.77.34 1.5 1.5 0 0 0-.55 1 3.8 3.8 0 0 0 .7 2.76 2 2 0 0 0 1 .6v.19a9.16 9.16 0 0 0 1.32 3.32 7.76 7.76 0 0 0 3.58 3v1.77H6.14a6.08 6.08 0 0 0-4 1.73 8.06 8.06 0 0 0-2.06 6V33s-.19 1.11.11 1.11h23.34c.31 0 .14-1.11.14-1.11zm-6.08-7.73a5 5 0 0 1 3.23 1.42 7 7 0 0 1 1.74 5.17V33h-8.79a.49.49 0 0 0 0-.12l-1.07-4 .77.24a.47.47 0 0 0 .17 0 .57.57 0 0 0 .42-.19l.57-.67 1-.61a.55.55 0 0 0 .25-.57l-.31-1.81zm-8.39.82a3 3 0 0 0 1.9 1.59l-.76.25-.34-.46a.69.69 0 0 0-.13-.11l-.76-.46zm5.37-.09l.16.92-.76.46a.69.69 0 0 0-.13.11l-.39.46-.79-.26A3 3 0 0 0 14.57 26zm-1.93 7h-1.49l.75-2.82zm.74-23.58a.56.56 0 0 0-.37.36 4.26 4.26 0 0 0-.19 1 4.35 4.35 0 0 0-1.94 0 4.88 4.88 0 0 0-.19-1 .6.6 0 0 0-.37-.36A10.16 10.16 0 0 0 7.48 9a9.64 9.64 0 0 0-1.13.07.56.56 0 0 0 .13-.35v-1.2c.51-.25 2-.8 5.39-.8s4.88.55 5.4.8v1.21a.53.53 0 0 0 .13.36A8.42 8.42 0 0 0 16.22 9a10.16 10.16 0 0 0-2.84.41zm-5.9.7a8.86 8.86 0 0 1 2.23.29 2.42 2.42 0 0 1-.17 1.7 1.41 1.41 0 0 1-1.19.53h-1c-1.42 0-1.93-.11-2.06-2.25a7.78 7.78 0 0 1 2.21-.3zm6.51.29a8.86 8.86 0 0 1 2.23-.29 7.84 7.84 0 0 1 2.21.3c-.13 2.14-.64 2.25-2.06 2.25h-1a1.41 1.41 0 0 1-1.19-.53 2.36 2.36 0 0 1-.17-1.7zm6.81 5.05a2.27 2.27 0 0 1-1.53 2.15 7.29 7.29 0 0 0 .43-1.55.17.17 0 0 0 0-.07v-.12a2 2 0 0 0 1-.6l.07-.09a2.64 2.64 0 0 1 0 .28zm-.51-2.86a2.73 2.73 0 0 1-.41 1.93.8.8 0 0 1-.17.15V12.2a.89.89 0 0 1 .45.15.34.34 0 0 1 .13.25zM8.59 2.42a25.49 25.49 0 0 1 4.41-.2 6.64 6.64 0 0 0 3.3-.42A1.78 1.78 0 0 0 17.35 3 2.59 2.59 0 0 1 19 5.66v3.41l-.62-.58V7.2a.54.54 0 0 0-.2-.43c-.14-.12-1.55-1.16-6.3-1.16s-6.15 1-6.3 1.16a.54.54 0 0 0-.2.43v1.29l-.64.6v-1.8c0-.17-.17-4.29 3.87-4.87zM3.83 14.53a2.68 2.68 0 0 1-.4-1.93.31.31 0 0 1 .12-.25.94.94 0 0 1 .45-.16v2.5l-.19-.16zm2.46 4.28a8.42 8.42 0 0 1-1.17-2.87v-2.73a3.36 3.36 0 0 0 2.21.57h1.08a2.5 2.5 0 0 0 2.05-1 2.54 2.54 0 0 0 .33-.76 3.31 3.31 0 0 1 1.44-.14v2.1a.22.22 0 0 1-.22.23h-.29a.22.22 0 0 1-.22-.23.56.56 0 0 0-1.11 0 1.33 1.33 0 0 0 1.33 1.33H12A1.32 1.32 0 0 0 13.33 14V12.86a2.49 2.49 0 0 0 1.95.88h1.08a3.32 3.32 0 0 0 2.23-.59v2.75a7.79 7.79 0 0 1-.58 1.8h-3.75a.64.64 0 0 0-.2 0 .81.81 0 0 0-.6-.26h-.61a.82.82 0 0 0-.82.81.82.82 0 0 0 .82.82h.61a.8.8 0 0 0 .64-.32.41.41 0 0 0 .16 0h3.15a6.76 6.76 0 0 1-5.5 3.09h-.1a6.76 6.76 0 0 1-5.52-3.12zM11.76 23H12a9.8 9.8 0 0 0 1.73-.27v1.95a.45.45 0 0 0 0 .11 1.83 1.83 0 0 1-3.66 0 .45.45 0 0 0 0-.11v-1.91a9.92 9.92 0 0 0 1.74.27zM1.17 31.86c0-6.51 4.76-6.59 5-6.59h2.05l-.31 1.81a.55.55 0 0 0 .25.57l1 .61.57.67a.59.59 0 0 0 .42.19.57.57 0 0 0 .18 0l.76-.25-1.06 4A.5.5 0 0 0 10 33H1.17zm0 0"/><path d="M8.59 11.38a.66.66 0 1 1-.66-.66.66.66 0 0 1 .66.66zm0 0M16.46 11.38a.67.67 0 1 1-.66-.66.67.67 0 0 1 .66.66zm0 0M10.23 18a3.16 3.16 0 0 1-1-.52.55.55 0 0 0-.78 0 .54.54 0 0 0 0 .78 3.94 3.94 0 0 0 1.42.74.57.57 0 0 0 .18 0 .55.55 0 0 0 .18-1zm0 0"/></svg>