<svg data-name="Layer 1" xmlns="http://www.w3.org/2000/svg" viewBox="0 0 30 30"><path d="M30 15A15 15 0 1 1 15 0a15 15 0 0 1 15 15zm0 0" fill="#cb2027"/><path d="M16.21 20.09a5.11 5.11 0 0 1-2.5-1.19c-.49 2.56-1.08 5-2.86 6.3-.54-3.87.81-6.78 1.43-9.87-1.06-1.8.13-5.42 2.38-4.53 2.77 1.1-2.4 6.68 1.08 7.38s5.1-6.28 2.85-8.57c-3.25-3.29-9.45-.07-8.69 4.64.19 1.16 1.38 1.51.48 3.1-2.08-.46-2.7-2.1-2.62-4.28a7 7 0 0 1 6.31-6.43c3.91-.44 7.58 1.44 8.09 5.12.57 4.15-1.77 8.65-5.95 8.33zm0 0" fill="#f1f2f2"/></svg>