<svg data-name="Layer 1" xmlns="http://www.w3.org/2000/svg" viewBox="0 0 37.07 44"><g data-name="Layer 4"><path fill="#f4981b" d="M.88 11.55h35.31v31.46H.88z"/><path d="M24.09 12.54a1 1 0 0 0 .88-.88 1 1 0 0 0-.88-.88H12a1 1 0 0 0-.88.88 1 1 0 0 0 .88.88z"/><path d="M36.19 10.78h-5.94a1 1 0 0 0-.88.88 1 1 0 0 0 .88.88h5.17v29.7H1.76v-29.7H6.6a1 1 0 0 0 .88-.88 1 1 0 0 0-.88-.88H.88a1 1 0 0 0-.88.88v31.46a1 1 0 0 0 .88.88h35.31a1 1 0 0 0 .88-.88V11.66a.81.81 0 0 0-.88-.88z"/><path d="M27.06 14.52a1 1 0 0 0 .88-.88V7.26c0-4.07-4.4-7.26-9.68-7.26S8.58 3.3 8.58 7.26v6.38a1 1 0 0 0 .88.88 1 1 0 0 0 .88-.88V7.26c0-3.08 3.52-5.5 7.92-5.5s7.92 2.53 7.92 5.5v6.38a1 1 0 0 0 .88.88zM7.15 15.84a2.31 2.31 0 0 0 4.62 0 1 1 0 0 0-.88-.88 1 1 0 0 0-.88.88.59.59 0 0 1-.55.55.52.52 0 0 1-.55-.55A1 1 0 0 0 8 15a1 1 0 0 0-.88.88zM27.06 18.15a2.32 2.32 0 0 0 2.31-2.31.88.88 0 1 0-1.76 0 .59.59 0 0 1-.55.55.52.52 0 0 1-.55-.55.88.88 0 1 0-1.76 0 2.32 2.32 0 0 0 2.31 2.31zM5.72 31.35a2.51 2.51 0 0 1-1.32-.66l.6-1.32a3.09 3.09 0 0 0 1.21.55 6.59 6.59 0 0 0 1.32.22 2.37 2.37 0 0 0 1.1-.22.6.6 0 0 0 .33-.55.57.57 0 0 0-.22-.44 2.4 2.4 0 0 0-.55-.33c-.22-.11-.55-.11-.88-.22a11.42 11.42 0 0 1-1.43-.44 2.6 2.6 0 0 1-1-.66 2 2 0 0 1-.44-1.21 2.22 2.22 0 0 1 .33-1.21A2.3 2.3 0 0 1 5.83 24a4.19 4.19 0 0 1 1.76-.33 6.44 6.44 0 0 1 1.41.2 4.07 4.07 0 0 1 1.21.55l-.55 1.32a3.73 3.73 0 0 0-2.09-.55 2.76 2.76 0 0 0-1.1.22 1.18 1.18 0 0 0-.22.66.56.56 0 0 0 .44.55 5.84 5.84 0 0 0 1.23.38 11.42 11.42 0 0 1 1.43.44 2.6 2.6 0 0 1 1 .66 2 2 0 0 1 .44 1.21 2.22 2.22 0 0 1-.33 1.21 3 3 0 0 1-1.1.88 4.19 4.19 0 0 1-1.76.33 4.74 4.74 0 0 1-1.88-.38zM16.94 29.92h-3.52l-.77 1.65h-1.76L14.3 24h1.76l3.41 7.59H17.6zm-.55-1.32l-1.21-3-1.18 3zM20.24 23.87H22V30h3.85v1.54h-5.61zM32.67 30.14v1.43h-5.94v-7.7h5.72v1.43h-4V27H32v1.32h-3.51V30h4.18z"/></g></svg>