<svg data-name="Layer 1" xmlns="http://www.w3.org/2000/svg" viewBox="0 0 37.07 44"><g data-name="Layer 3"><path d="M24.2 12.54a1 1 0 0 0 .88-.88 1 1 0 0 0-.88-.88H12.1a1 1 0 0 0-.88.88 1 1 0 0 0 .88.88z"/><path d="M36.3 10.78h-5.94a1 1 0 0 0-.88.88 1 1 0 0 0 .88.88h5.17v29.7H1.76v-29.7H6.6a1 1 0 0 0 .88-.88 1 1 0 0 0-.88-.88H.88a1 1 0 0 0-.88.88v31.46a1 1 0 0 0 .88.88h35.31a1 1 0 0 0 .88-.88V11.66a.78.78 0 0 0-.77-.88z"/><path d="M27.17 14.52a1 1 0 0 0 .88-.88V7.26c0-4.07-4.4-7.26-9.68-7.26S8.69 3.3 8.69 7.26v6.38a1 1 0 0 0 .88.88 1 1 0 0 0 .88-.88V7.26c0-3.08 3.52-5.5 7.92-5.5s7.92 2.53 7.92 5.5v6.38a.81.81 0 0 0 .88.88zM7.26 16a2.31 2.31 0 0 0 4.62 0 1 1 0 0 0-.88-.88 1 1 0 0 0-.88.88.59.59 0 0 1-.55.55A.52.52 0 0 1 9 16a1 1 0 0 0-.88-.88.87.87 0 0 0-.88.88zM27.17 18.15a2.32 2.32 0 0 0 2.31-2.31.88.88 0 1 0-1.76 0 .59.59 0 0 1-.55.55.52.52 0 0 1-.55-.55.88.88 0 1 0-1.76 0 2.26 2.26 0 0 0 2.31 2.31zM5.83 31.46a2.51 2.51 0 0 1-1.32-.66l.55-1.32a3.09 3.09 0 0 0 1.21.52 6.59 6.59 0 0 0 1.32.22 2.37 2.37 0 0 0 1.1-.22.6.6 0 0 0 .31-.52.57.57 0 0 0-.2-.48 2.4 2.4 0 0 0-.55-.33c-.22-.11-.55-.11-.88-.22a11.42 11.42 0 0 1-1.43-.44 2.6 2.6 0 0 1-1-.66 2 2 0 0 1-.44-1.21A2.22 2.22 0 0 1 4.84 25a2.3 2.3 0 0 1 1.1-.88 4.19 4.19 0 0 1 1.76-.33 6.44 6.44 0 0 1 1.43.21 4.07 4.07 0 0 1 1.21.55l-.55 1.32a3.73 3.73 0 0 0-2.09-.57 2.76 2.76 0 0 0-1.1.22.67.67 0 0 0-.33.66.56.56 0 0 0 .44.55 5.84 5.84 0 0 0 1.21.33 11.42 11.42 0 0 1 1.43.44 2.6 2.6 0 0 1 1 .66 2 2 0 0 1 .44 1.21 2.22 2.22 0 0 1-.33 1.21 3 3 0 0 1-1.1.88 4.19 4.19 0 0 1-1.76.33c-.67-.11-1.22-.22-1.77-.33zM16.94 29.92h-3.52l-.66 1.65H11L14.41 24h1.76l3.41 7.59h-1.87zm-.55-1.32l-1.21-3-1.18 3zM20.35 24h1.76v6.16H26v1.43h-5.65zM32.78 30.14v1.43h-5.94V24h5.72v1.43h-4v1.65h3.52v1.32H28.6v1.76z"/></g></svg>