<?xml version="1.0" encoding="iso-8859-1"?>
<!-- Generator: Adobe Illustrator 19.0.0, SVG Export Plug-In . SVG Version: 6.00 Build 0)  -->
<svg version="1.1" id="Capa_1" xmlns="http://www.w3.org/2000/svg" xmlns:xlink="http://www.w3.org/1999/xlink" x="0px" y="0px"
	 viewBox="0 0 512 512" style="enable-background:new 0 0 512 512;" xml:space="preserve">
<g>
	<g>
		<path d="M376,0H136c-20.678,0-37.5,16.822-37.5,37.5v437c0,20.678,16.822,37.5,37.5,37.5h240c20.678,0,37.5-16.822,37.5-37.5v-437
			C413.5,16.822,396.678,0,376,0z M398.5,474.5c0,12.406-10.094,22.5-22.5,22.5H136c-12.407,0-22.5-10.094-22.5-22.5v-437
			c0-12.406,10.093-22.5,22.5-22.5h240c12.406,0,22.5,10.094,22.5,22.5V474.5z"/>
	</g>
</g>
<g>
	<g>
		<path d="M256,436.5c-12.407,0-22.5,10.094-22.5,22.5s10.093,22.5,22.5,22.5c12.406,0,22.5-10.094,22.5-22.5
			S268.406,436.5,256,436.5z M256,466.5c-4.136,0-7.5-3.364-7.5-7.5s3.364-7.5,7.5-7.5s7.5,3.364,7.5,7.5S260.136,466.5,256,466.5z"
			/>
	</g>
</g>
<g>
	<g>
		<path d="M379.191,34.482C376.348,31.592,372.551,30,368.5,30h-225c-8.271,0-15,6.729-15,15v362c0,3.497,1.231,6.903,3.469,9.592
			c2.86,3.437,7.063,5.408,11.531,5.408c4.142,0,7.5-3.357,7.5-7.5s-3.358-7.5-7.5-7.5V45h225v362H173.502
			c-4.142,0-7.5,3.357-7.5,7.5s3.358,7.5,7.5,7.5H368.5c8.271,0,15-6.729,15-15V45C383.5,41.041,381.97,37.306,379.191,34.482z"/>
	</g>
</g>
<g>
	<g>
		<path d="M318.437,154.451L318.437,154.451C301.129,139.329,278.955,131,256,131c-52.383,0-95,42.617-95,95s42.617,95,95,95
			s95-42.617,95-95C351,198.61,339.131,172.531,318.437,154.451z M256,306c-44.112,0-80-35.888-80-80s35.888-80,80-80
			c19.324,0,37.993,7.013,52.567,19.747v0.001C326.001,180.979,336,202.94,336,226C336,270.112,300.112,306,256,306z"/>
	</g>
</g>
<g>
	<g>
		<path d="M231.1,269.35C215.62,260.4,206,243.79,206,226c0-4.13-3.36-7.5-7.5-7.5c-4.13,0-7.5,3.37-7.5,7.5
			c0,11.62,3.12,23.02,9.01,32.989c5.72,9.671,13.88,17.75,23.6,23.351c1.14,0.66,2.43,1,3.74,1c2.67,0,5.17-1.43,6.5-3.75
			C235.92,276.01,234.68,271.41,231.1,269.35z"/>
	</g>
</g>
<g>
	<g>
		<path d="M256,161c-4.142,0-7.5,3.357-7.5,7.5s3.358,7.5,7.5,7.5c27.57,0,50,22.43,50,50s-22.43,50-50,50
			c-4.142,0-7.5,3.357-7.5,7.5s3.358,7.5,7.5,7.5c35.841,0,65-29.159,65-65S291.841,161,256,161z"/>
	</g>
</g>
<g>
	<g>
		<path d="M256,218.25c-2.067,0-3.75-1.684-3.75-3.749c0-2.066,1.683-3.749,3.75-3.749h9.751c4.143,0,7.5-3.357,7.5-7.5
			s-3.357-7.499-7.5-7.499h-2.499c0-4.143-3.358-7.498-7.499-7.498c-4.142,0-7.5,3.355-7.5,7.498v1.695
			c-6.479,2.955-11.002,9.479-11.002,17.053c0,10.337,8.41,18.747,18.748,18.747c2.068,0,3.75,1.684,3.75,3.75
			c0,2.066-1.683,3.748-3.749,3.748h-11.249c-4.142,0-7.5,3.357-7.5,7.5s3.358,7.5,7.5,7.5h3.502v0.5c0,4.141,3.357,7.499,7.5,7.499
			c4.141,0,7.499-3.358,7.499-7.499v-1.963c6.746-2.842,11.495-9.519,11.495-17.285C274.747,226.66,266.336,218.25,256,218.25z"/>
	</g>
</g>
<g>
</g>
<g>
</g>
<g>
</g>
<g>
</g>
<g>
</g>
<g>
</g>
<g>
</g>
<g>
</g>
<g>
</g>
<g>
</g>
<g>
</g>
<g>
</g>
<g>
</g>
<g>
</g>
<g>
</g>
</svg>
