<svg id="Layer_1" data-name="Layer 1" xmlns="http://www.w3.org/2000/svg" viewBox="0 0 44 33.8"><defs><style>.cls-1{fill:#f4981b}</style></defs><path class="cls-1" d="M42.7 26.2l-1.8.9H2.8l-1.5-.9-.6-1.4v-6.5h42.6v6.5l-.6 1.4zM5.9 32.3h.2l1.7-4.4H5.9v4.4zM7.4 10.3H3.7a2.22 2.22 0 0 0-2.2 2.2v5.1h5.9zM38 32.3h.2v-4.4h-1.9l1.7 4.4z"/><path class="cls-1" d="M8.8 9.5v8.1h26.5V9.5a.68.68 0 0 1 .7-.7h2.2V3.7A2.22 2.22 0 0 0 36 1.5H8.1a2.22 2.22 0 0 0-2.2 2.2v5.1h2.2a.68.68 0 0 1 .7.7z"/><path class="cls-1" d="M40.4 10.3h-3.7v7.3h5.9v-5.1a2.22 2.22 0 0 0-2.2-2.2z"/><path d="M40.4 8.8h-.7V3.7A3.69 3.69 0 0 0 36 0H8.1a3.69 3.69 0 0 0-3.7 3.7v5.1h-.7A3.69 3.69 0 0 0 0 12.5v11.8A3.69 3.69 0 0 0 3.7 28h.7v5.1a.68.68 0 0 0 .7.7h1.5a.75.75 0 0 0 .7-.5l2-5.4h25.4l2 5.4a.75.75 0 0 0 .7.5h1.5a.68.68 0 0 0 .7-.7V28h.7a3.69 3.69 0 0 0 3.7-3.7V12.5a3.49 3.49 0 0 0-3.6-3.7zM5.9 3.7a2.22 2.22 0 0 1 2.2-2.2H36a2.22 2.22 0 0 1 2.2 2.2v5.1H36a.68.68 0 0 0-.7.7v8.1H8.8V9.5a.68.68 0 0 0-.7-.7H5.9zm-4.4 8.8a2.22 2.22 0 0 1 2.2-2.2h3.7v7.3H1.5zm4.6 19.8h-.2v-4.4h1.9zm32.1 0H38l-1.7-4.4h1.9zm4.4-8.1a2.22 2.22 0 0 1-2.2 2.2H3.7a2.22 2.22 0 0 1-2.2-2.2v-5.1h41.1zm0-6.6h-5.9v-7.3h3.7a2.22 2.22 0 0 1 2.2 2.2z"/><path d="M3.7 25h30.9a.7.7 0 1 0 0-1.4H3.7a.7.7 0 0 0 0 1.4zM37.5 25h2.9a.7.7 0 0 0 0-1.4h-2.9a.7.7 0 1 0 0 1.4z"/></svg>