<svg id="Layer_1" data-name="Layer 1" xmlns="http://www.w3.org/2000/svg" viewBox="0 0 44 33.72"><defs><style>.cls-2{fill:none}</style></defs><path fill="#f4981b" d="M42.8 26.34l-1.79.9H2.99l-1.49-.9-.5-1.4v-6.48h42.4v6.48l-.6 1.4z"/><path class="cls-2" d="M5.89 32.33h.2l1.69-4.39H5.89v4.39zM7.38 10.28H3.69a2.2 2.2 0 0 0-2.19 2.19v5.09h5.88zM37.91 32.33h.2v-4.39h-1.89l1.69 4.39z"/><path class="cls-2" d="M8.78 9.58v8.08h26.44V9.58a.68.68 0 0 1 .7-.7h2.19V3.79a2.2 2.2 0 0 0-2.19-2.19H8.08a2.2 2.2 0 0 0-2.19 2.19v5.09h2.19c.4-.1.7.3.7.7z"/><path class="cls-2" d="M40.31 10.28h-3.69v7.28h5.88v-5.09a2.2 2.2 0 0 0-2.19-2.19z"/><path d="M40.31 8.78h-.7V3.69A3.69 3.69 0 0 0 35.92 0H8.08a3.69 3.69 0 0 0-3.69 3.69v5.09h-.7A3.69 3.69 0 0 0 0 12.47v11.77a3.69 3.69 0 0 0 3.69 3.7h.7V33a.68.68 0 0 0 .7.7h1.5a.75.75 0 0 0 .69-.5l2-5.38h25.34l2 5.38a.75.75 0 0 0 .7.5h1.49a.68.68 0 0 0 .7-.7v-5.06h.8a3.69 3.69 0 0 0 3.69-3.7V12.47a3.69 3.69 0 0 0-3.69-3.69zM5.89 3.69A2.2 2.2 0 0 1 8.08 1.5h27.84a2.2 2.2 0 0 1 2.19 2.19v5.09h-2.19a.68.68 0 0 0-.7.7v8.08H8.78V9.48a.68.68 0 0 0-.7-.7H5.89zM1.5 12.47a2.2 2.2 0 0 1 2.19-2.19h3.69v7.28H1.5zm4.59 19.86h-.2v-4.39h1.89zm32 0h-.2l-1.69-4.39h1.89zm4.39-8.09a2.21 2.21 0 0 1-2.19 2.2H3.69a2.21 2.21 0 0 1-2.19-2.2v-5.08h41.1l-.1 5.08zm0-6.58h-5.86v-7.28h3.69a2.2 2.2 0 0 1 2.19 2.19z"/><path d="M3.69 24.94h30.83a.7.7 0 1 0 0-1.39H3.69a.7.7 0 1 0 0 1.39zM37.41 24.94h2.9a.68.68 0 0 0 .7-.7.77.77 0 0 0-.7-.79h-2.9a.68.68 0 0 0-.69.7.77.77 0 0 0 .69.79z"/></svg>