<svg xmlns="http://www.w3.org/2000/svg" xmlns:xlink="http://www.w3.org/1999/xlink" version="1.1" x="0px" y="0px" width="52px" height="52px" viewBox="0 0 52 52" enable-background="new 0 0 52 52" xml:space="preserve">
    <path fill="#FF6866" d="M22.7,22.8c-0.3,0.3-0.3,0.9,0,1.2l5.2,5.2c0.2,0.2,0.4,0.3,0.6,0.3c0.3,0,0.4-0.1,0.6-0.3    c0.3-0.3,0.3-0.9,0-1.2l-5.2-5.2C23.6,22.5,23.1,22.5,22.7,22.8L22.7,22.8z M20.5,26.3c-0.3-0.3-0.9-0.3-1.2,0    c-0.3,0.3-0.3,0.9,0,1.2l5.2,5.2c0.2,0.2,0.4,0.3,0.6,0.3s0.4-0.1,0.6-0.3c0.3-0.3,0.3-0.9,0-1.2L20.5,26.3z M17,29.7    c-0.3-0.3-0.9-0.3-1.2,0c-0.3,0.3-0.3,0.9,0,1.2l5.2,5.2c0.2,0.2,0.4,0.3,0.6,0.3c0.2,0,0.4-0.1,0.6-0.3c0.3-0.3,0.3-0.9,0-1.2    L17,29.7z M33.3,27.7l-9.2-9.2L11.5,31.2l9.2,9.2L33.3,27.7z M24.8,16.7l10.4,10.4c0.3,0.3,0.3,0.9,0,1.2L21.3,42.2    c-0.2,0.2-0.4,0.3-0.6,0.3s-0.4-0.1-0.6-0.3L9.7,31.8c-0.3-0.3-0.3-0.9,0-1.2l13.8-13.8C23.9,16.4,24.4,16.4,24.8,16.7L24.8,16.7z     M44.9,31.7c-0.4-0.3-1-0.1-1.2,0.3l-9.9,16.9c-0.7,1.2-2.3,1.6-3.5,1l-1.9-1.2c-0.4-0.3-1-0.2-1.2,0.3c-0.3,0.4-0.2,1,0.3,1.2    l2,1.3c0.7,0.4,1.4,0.6,2.2,0.6c1.5,0,2.9-0.8,3.7-2.2l10-16.9C45.5,32.5,45.4,32,44.9,31.7L44.9,31.7z M51.9,4.4v13.8    c0,2.7-0.9,4.7-2.9,6.7L23.3,50.6c-0.8,0.8-1.9,1.3-3,1.3c-1.1,0-2.2-0.4-3-1.3L1.3,34.7C0.5,33.9,0,32.8,0,31.6    c0-1.1,0.4-2.2,1.3-3L23.8,6.2c-5.9-1.3-9.5-1.4-10.6-1.1c0.4,0.4,1.8,1.5,5.3,2.8C19,8,19.2,8.5,19.1,9c-0.2,0.4-0.7,0.7-1.1,0.5    c-7-2.8-6.6-4.3-6.5-4.8C11.8,3.4,13.5,3,17,3.3c2.9,0.3,6.6,1,10.4,2c3.7,1,7.3,2.2,9.9,3.4c3.2,1.5,4.5,2.7,4.2,3.9    C41,13.7,39.5,13.9,39,14h-0.1c-0.4,0-0.8-0.3-0.9-0.8c0-0.4,0.3-0.9,0.8-1c0.3,0,0.6-0.1,0.8-0.1c-0.3-0.3-1.3-1-2.8-1.7    c-0.3,0.5-0.5,1.1-0.5,1.7c0,1.9,1.6,3.5,3.5,3.5c1.9,0,3.5-1.6,3.5-3.5s-1.6-3.5-3.5-3.5c-0.5,0-0.9-0.3-0.9-0.9    c0-0.5,0.3-0.9,0.9-0.9c2.9,0,5.2,2.3,5.2,5.2s-2.3,5.2-5.2,5.2c-2.9,0-5.2-2.3-5.2-5.2c0-0.9,0.3-1.7,0.6-2.5    c-2-0.9-4.8-1.8-8.3-2.8c-0.3-0.1-0.7-0.2-1.1-0.3L2.5,29.8c-0.5,0.5-0.8,1.1-0.8,1.8c0,0.7,0.3,1.4,0.8,1.8l15.9,15.9    c1,1,2.7,1,3.6,0l25.7-25.7c1.6-1.6,2.3-3.2,2.3-5.5V4.4c0-1.5-1.1-2.6-2.6-2.6H33.7c-2.2,0-3.7,0.7-5.5,2.3    c-0.3,0.3-0.9,0.3-1.2,0c-0.3-0.3-0.3-0.9,0-1.2c2-2,4-2.9,6.7-2.9h13.8C50,0,51.9,2,51.9,4.4L51.9,4.4z"/>
</svg>