<svg data-name="Layer 1" xmlns="http://www.w3.org/2000/svg" viewBox="0 0 24 21.29"><path d="M23.88 10.35l-3.54-7.89a.43.43 0 0 0 0-.07.21.21 0 0 0 0-.06h-6.73A1.64 1.64 0 0 0 13 1.31V.53a.54.54 0 0 0-.51-.53h-1a.54.54 0 0 0-.49.53v.79a1.77 1.77 0 0 0-.57.82H4v.03h-.14v.06a.43.43 0 0 0 0 .07L.1 10.37a.57.57 0 0 0-.1.31 4.14 4.14 0 0 0 8.27 0 .56.56 0 0 0-.09-.31L5 3.2h5.45A1.67 1.67 0 0 0 11 4v13.37H6.23a.55.55 0 0 0-.48.29l-1.46 2.85a.53.53 0 0 0 0 .52.54.54 0 0 0 .46.26h14.48a.54.54 0 0 0 .46-.82l-1.45-2.81a.54.54 0 0 0-.48-.29H13V4a1.68 1.68 0 0 0 .57-.79H19l-3.26 7.26v.08a.28.28 0 0 0 0 .09 4.14 4.14 0 0 0 8.27 0 .53.53 0 0 0-.12-.33zm-17-.21H1.37L4.14 4zm5.72-7.49A.63.63 0 1 1 12 2a.63.63 0 0 1 .63.62zm4.46 7.49L19.85 4l2.77 6.17zm0 0" fill="#ccc"/></svg>