<svg data-name="Layer 1" xmlns="http://www.w3.org/2000/svg" viewBox="0 0 54.34 30"><rect y=".02" width="54.34" height="30.1" rx="1.7" ry="1.7" fill="#fff"/><path d="M23 8l-2.23 14.13h3.63L26.67 8zm11 5.76c-1.27-.64-2-1.06-2-1.7s.66-1.18 2.09-1.18a6.44 6.44 0 0 1 2.71.52l.33.15.49-3A9.15 9.15 0 0 0 34.31 8c-3.59 0-6.11 1.86-6.13 4.53 0 2 1.81 3.06 3.18 3.72s1.89 1.1 1.89 1.7c0 .92-1.14 1.34-2.18 1.34a7.4 7.4 0 0 1-3.41-.73l-.48-.22-.51 3.08a11.41 11.41 0 0 0 4 .73c3.81 0 6.29-1.84 6.33-4.68 0-1.56-1-2.75-3-3.73zM46.88 8h-2.81a1.8 1.8 0 0 0-1.9 1.14l-5.39 13h3.81l1-2.81h4.31l.55 2.82h3.36zm-4.19 8.46c.08 0 1.47-4.58 1.47-4.58l1.1 4.58zM17.73 8l-3.56 9.6-.38-1.9a10.56 10.56 0 0 0-5-5.74L12 22.12h3.85L21.58 8zm0 0" fill="#2394bc"/><path d="M12.59 9.81A2.39 2.39 0 0 0 10.23 8H4.59l-.06.26c4.4 1.09 8.09 4.42 9.29 7.56zm0 0" fill="#efc75e"/></svg>