<?xml version="1.0" encoding="iso-8859-1"?>
<!-- Generator: Adobe Illustrator 19.0.0, SVG Export Plug-In . SVG Version: 6.00 Build 0)  -->
<svg version="1.1" id="Capa_1" xmlns="http://www.w3.org/2000/svg" xmlns:xlink="http://www.w3.org/1999/xlink" x="0px" y="0px"
	 viewBox="0 0 512 512" style="enable-background:new 0 0 512 512;" xml:space="preserve">
<g>
	<g>
		<path d="M354.84,347.939c-3.24-5.419-7.93-9.79-13.57-12.649c-12.96-6.55-26.67-11.601-40.76-15.011
			c-14.5-3.5-29.47-5.279-44.49-5.279h-0.04c-15.02,0-30,1.779-44.5,5.279c-14.09,3.41-27.8,8.461-40.75,15.011
			c-5.64,2.859-10.34,7.239-13.57,12.649c-3.13,5.25-4.78,11.24-4.78,17.34c0,5.69,1.46,11.351,4.23,16.351l0.02,0.04
			c5.94,10.729,17.24,17.399,29.5,17.399h0.05c5.21,0,10.44-1.25,15.13-3.6c17.07-8.61,35.47-12.97,54.69-12.97
			c19.21,0,37.609,4.359,54.689,12.96c1.061,0.54,2.19,0.81,3.37,0.81c2.851,0,5.42-1.58,6.7-4.13c0.53-1.04,0.8-2.16,0.8-3.33
			c0.021-2.87-1.56-5.45-4.12-6.74c-9.34-4.71-19.22-8.329-29.37-10.779c-10.449-2.511-21.229-3.79-32.049-3.79h-0.04
			c-10.82,0-21.6,1.279-32.05,3.79c-10.15,2.45-20.03,6.069-29.37,10.779c-2.64,1.33-5.47,2-8.4,2c-6.83-0.01-13.12-3.72-16.41-9.67
			l-0.02-0.04c-1.55-2.819-2.34-5.869-2.35-9.08c0.02-7.1,3.89-13.46,10.12-16.6C202,336.279,228.41,330,256,330
			c27.58,0,53.99,6.279,78.5,18.67c6.22,3.149,10.1,9.51,10.109,16.609c0,3.221-0.79,6.28-2.35,9.101c0,0.01,0,0.01-0.01,0.01
			c-1.19,2.15-2.76,4.021-4.65,5.55c-3.229,2.58-3.75,7.311-1.16,10.54c1.44,1.78,3.57,2.8,5.86,2.8c1.69,0,3.35-0.579,4.67-1.64
			c0.01,0,0.01,0,0.021-0.01c3.399-2.73,6.21-6.061,8.34-9.89l0.06-0.101c2.771-5.01,4.23-10.67,4.22-16.36
			C359.621,359.179,357.97,353.189,354.84,347.939z"/>
	</g>
</g>
<g>
	<g>
		<path d="M405.76,256.24c-3.14-5.37-7.73-9.73-13.24-12.64c-20.64-10.84-42.54-19.2-65.109-24.84
			c-23.23-5.81-47.261-8.76-71.39-8.76h-0.04c-24.14,0-48.16,2.95-71.4,8.76c-22.56,5.64-44.47,14-65.1,24.85
			c-5.52,2.9-10.1,7.271-13.25,12.631c-3.05,5.189-4.66,11.109-4.65,17.119c0,5.69,1.46,11.351,4.23,16.351v0.01
			c5.93,10.72,17.23,17.39,29.5,17.39h0.04c5.45,0,10.91-1.34,15.77-3.89c32.62-17.06,67.9-25.72,104.88-25.72
			c36.979,0,72.26,8.66,104.87,25.72c1.069,0.56,2.27,0.85,3.47,0.85c2.81,0,5.35-1.54,6.65-4.02c0.569-1.08,0.859-2.29,0.859-3.5
			c-0.01-2.79-1.55-5.33-4.01-6.62c-0.01,0-0.01,0-0.021-0.01l-0.109-0.05c-16.9-8.841-34.83-15.641-53.29-20.24
			c-19.01-4.73-38.66-7.13-58.4-7.13h-0.04c-19.76,0-39.43,2.41-58.47,7.149c-18.48,4.601-36.43,11.431-53.34,20.28
			c-2.76,1.44-5.73,2.18-8.82,2.18c-6.85-0.02-13.13-3.71-16.41-9.649l-0.01-0.01c-1.56-2.82-2.35-5.881-2.35-9.091
			c0.01-6.97,3.8-13.29,9.88-16.47C166.16,236.029,210.96,225,256,225s89.84,11.029,129.54,31.88c6.08,3.189,9.859,9.51,9.87,16.49
			c0,3.21-0.79,6.27-2.351,9.09c-1.26,2.28-2.93,4.22-4.96,5.78c-1.59,1.22-2.609,2.979-2.88,4.97c-0.26,1.979,0.271,3.95,1.49,5.55
			c1.43,1.86,3.6,2.93,5.95,2.93c1.659,0,3.239-0.529,4.56-1.54c3.69-2.83,6.71-6.34,8.97-10.43c2.771-5.01,4.23-10.66,4.221-16.35
			C410.42,267.349,408.809,261.43,405.76,256.24z"/>
	</g>
</g>
<g>
	<g>
		<path d="M443.479,151.81c-28.279-15.1-58.33-26.74-89.319-34.6c-31.931-8.101-64.95-12.21-98.14-12.21l-0.02,0.05l-0.02-0.05
			c-33.19,0-66.21,4.109-98.14,12.21c-31,7.859-61.05,19.5-89.33,34.6c-10.94,5.851-17.73,17.21-17.72,29.66
			c0,5.69,1.46,11.34,4.23,16.34l0.02,0.04c5.93,10.73,17.24,17.4,29.5,17.4h0.07c5.47,0,10.94-1.37,15.82-3.971
			C148.04,185.91,201.83,172.5,256,172.5s107.96,13.41,155.56,38.779c1.08,0.57,2.3,0.881,3.521,0.881
			c2.779,0,5.319-1.521,6.63-3.971c0.57-1.08,0.87-2.29,0.88-3.5c0.01-2.79-1.51-5.34-3.97-6.64c0-0.01,0-0.01-0.011-0.01
			c-0.02-0.021-0.05-0.03-0.069-0.04l-0.04-0.021c-24.521-13.06-50.58-23.13-77.44-29.93c-27.67-7-56.29-10.55-85.07-10.55
			c-28.79,0-57.43,3.56-85.12,10.569c-26.89,6.811-52.96,16.891-77.49,29.971c-2.75,1.46-5.72,2.21-8.81,2.21
			c-6.84-0.01-13.13-3.721-16.41-9.67l-0.02-0.03c-1.55-2.82-2.34-5.87-2.35-9.08c0.02-6.92,3.77-13.22,9.79-16.43
			C130.78,135.58,193.17,120,256,120s125.21,15.58,180.42,45.04c6.02,3.21,9.77,9.5,9.78,16.43c0,3.21-0.79,6.271-2.351,9.1
			l-0.03,0.04c-1.26,2.28-2.939,4.221-4.989,5.79c-1.59,1.21-2.61,2.971-2.88,4.96c-0.261,1.99,0.26,3.96,1.479,5.551
			c1.43,1.869,3.601,2.949,5.96,2.949c1.66,0,3.23-0.529,4.55-1.54c0,0,0-0.01,0.011-0.01c3.71-2.84,6.75-6.359,9.02-10.479h0.01
			c0-0.011,0-0.011,0-0.011c2.761-5,4.221-10.649,4.221-16.35C461.22,169.02,454.43,157.649,443.479,151.81z"/>
	</g>
</g>
<g>
	<g>
		<path d="M494.29,59.72c-35.88-19.26-74.05-34.12-113.45-44.15C340.26,5.24,298.26,0,255.99,0c-42.26,0-84.26,5.24-124.84,15.569
			C91.75,25.6,53.58,40.46,17.71,59.72C6.79,65.59,0,76.99,0,89.46c0,5.76,1.44,11.42,4.18,16.359
			c5.98,10.771,17.35,17.48,29.67,17.511h0.03c5.49,0,11.01-1.4,15.95-4.061C112.85,85.399,184.14,67.5,256,67.5
			c52.05,0,103,9.1,151.42,27.05c18.67,6.91,37.03,15.2,54.6,24.63c0.05,0.03,0.101,0.061,0.15,0.09c0.01,0,0.01,0,0.02,0
			c1.08,0.58,2.301,0.891,3.53,0.891c2.76,0,5.3-1.511,6.61-3.95c0.59-1.101,0.899-2.33,0.89-3.58c-0.01-2.75-1.52-5.271-3.939-6.57
			c0,0,0-0.01-0.011-0.01l-0.109-0.06c-18.181-9.761-37.2-18.341-56.521-25.511C362.53,61.91,309.83,52.5,256,52.5
			c-37.79,0-75.37,4.7-111.7,13.97c-35.26,8.99-69.44,22.31-101.57,39.58c-2.82,1.51-5.8,2.28-8.88,2.28h-0.07
			c-6.76,0-13.23-3.83-16.48-9.771c-1.52-2.77-2.3-5.83-2.3-9.1c0-6.95,3.76-13.28,9.81-16.521C95.41,35.04,175.35,15,256,15
			c80.649,0,160.6,20.04,231.189,57.939C493.24,76.18,497,82.51,497,89.46c0,3.27-0.78,6.34-2.3,9.1
			c-1.261,2.28-3.051,4.33-5.181,5.931c-1.6,1.199-2.64,2.96-2.92,4.939c-0.28,1.98,0.22,3.96,1.431,5.561c1.43,1.909,3.619,3,6,3
			c1.63,0,3.189-0.521,4.5-1.5c0-0.011,0.01-0.011,0.01-0.011c3.85-2.899,6.97-6.479,9.279-10.66
			C510.56,100.88,512,95.229,512,89.46C512,76.99,505.21,65.59,494.29,59.72z"/>
	</g>
</g>
<g>
	<g>
		<path d="M302.378,465.621c0.001-0.251-0.012-0.499-0.035-0.743C301.542,440.077,280.878,420,256,420s-45.542,20.077-46.343,44.878
			c-0.024,0.244-0.036,0.492-0.036,0.743c0,0.131,0.003,0.261,0.007,0.368c-0.004,0.13-0.007,0.259-0.007,0.39
			c0,0.25,0.012,0.497,0.036,0.741c0.236,7.298,2.215,14.505,5.739,20.881C223.577,502.804,239.135,512,256,512
			s32.424-9.196,40.604-23.999c3.523-6.377,5.503-13.583,5.738-20.879c0.023-0.244,0.036-0.492,0.036-0.743
			c0-0.131-0.003-0.261-0.007-0.368C302.375,465.881,302.378,465.752,302.378,465.621z M287.36,466.235
			c-0.097,5.069-1.44,10.087-3.885,14.51C277.936,490.771,267.407,497,256,497c-11.407,0-21.935-6.229-27.476-16.255
			c-2.444-4.422-3.788-9.44-3.885-14.511c-0.001-0.078-0.004-0.156-0.008-0.234c0.004-0.078,0.007-0.156,0.008-0.234
			C224.966,448.802,239.034,435,256,435s31.034,13.802,31.36,30.766c0.002,0.078,0.005,0.156,0.009,0.234
			C287.365,466.078,287.362,466.156,287.36,466.235z"/>
	</g>
</g>
<g>
</g>
<g>
</g>
<g>
</g>
<g>
</g>
<g>
</g>
<g>
</g>
<g>
</g>
<g>
</g>
<g>
</g>
<g>
</g>
<g>
</g>
<g>
</g>
<g>
</g>
<g>
</g>
<g>
</g>
</svg>
